<svg xmlns:xlink="http://www.w3.org/1999/xlink" xmlns="http://www.w3.org/2000/svg" width="431" height="233" viewBox="0 0 431 233" fill="none">
<g opacity="0.3">
<path d="M288.865 51.5752C291.105 50.2852 291.105 48.1702 288.865 46.8802L209.645 1.14523C207.41 -0.144765 203.755 -0.144765 201.52 1.14523L122.3 46.8802C120.06 48.1702 120.06 50.2852 122.3 51.5752L201.5 97.3153C203.735 98.6003 207.39 98.6003 209.625 97.3153L288.865 51.5752Z" fill="#AC3033"/>
<path d="M110.555 58.6902C110.555 56.1102 112.38 55.0502 114.62 56.3402L193.845 102.105C196.075 103.395 196.075 105.505 193.845 106.795L114.62 152.535C112.38 153.825 110.555 152.77 110.555 150.19V58.6902Z" fill="#AC3033"/>
<path d="M216.18 106.77C213.95 105.48 213.95 103.37 216.18 102.08L295.4 56.3402C297.635 55.0502 299.465 56.1102 299.465 58.6902V150.155C299.465 152.735 297.635 153.79 295.4 152.5L216.18 106.77Z" fill="#AC3033"/>
<path d="M122.3 161.97C120.06 160.68 120.06 158.57 122.3 157.28L201.52 111.54C203.755 110.255 207.41 110.255 209.645 111.54L288.845 157.28C291.085 158.57 291.085 160.68 288.845 161.97L209.625 207.71C207.39 209 203.735 209 201.5 207.71L122.3 161.97Z" fill="#AC3033"/>
</g>
<path fill-rule="evenodd" clip-rule="evenodd" d="M162.54 67.9999C163.045 67.4002 163.739 66.9906 164.508 66.8388C165.277 66.687 166.075 66.802 166.77 67.1649C166.77 67.1649 167.74 67.7999 168.105 67.9649C168.276 68.0425 168.514 68.2018 168.75 68.3593C169.014 68.5368 169.276 68.7119 169.435 68.7649C169.735 68.8649 170.57 69.0649 171 67.7349C171.225 67.0384 171.306 66.7971 171.333 66.7253L171.335 66.7349C171.335 66.7349 171.356 66.66 171.333 66.7253C171.313 66.6452 171.192 66.0829 171.47 65.8649L171.535 64.2349L171.935 63.5349V62.1349C171.649 61.5129 171.266 60.9407 170.8 60.4399C170.417 60.1148 170.051 59.7693 169.705 59.4049C168.579 59.2479 167.464 59.014 166.37 58.7049H162.74C162.449 58.5144 162.172 58.3039 161.91 58.0749C161.545 57.7399 160.31 57.8049 160.31 57.8049C160.31 57.8049 160.245 57.4899 160.46 57.3549C160.675 57.2199 161.195 55.3549 159.46 54.8549C157.725 54.3549 156.895 53.7399 156.715 52.8549C156.634 52.911 156.567 52.9855 156.52 53.0724C156.473 53.1593 156.447 53.2561 156.445 53.3549C156.445 53.6399 156.415 53.8199 156.265 53.8199C156.265 53.8199 155.93 53.5899 155.915 53.3199C155.9 53.0499 155.73 52.6349 155.58 52.5699C155.261 52.1724 155.085 51.6794 155.08 51.1699C154.863 51.679 154.799 52.24 154.895 52.7849C154.895 52.7849 154.765 52.7849 154.595 52.5549C154.512 52.4424 154.315 52.2726 154.101 52.0875C153.877 51.894 153.633 51.6838 153.48 51.5049C153.245 51.2304 152.121 50.7929 151.396 50.5108C151.196 50.4333 151.027 50.3673 150.915 50.3199C150.395 50.0999 147.685 49.2699 147.685 49.2699L148.82 50.3899C148.917 50.4875 149.057 50.5745 149.214 50.6721C149.54 50.8745 149.939 51.1225 150.185 51.6049C148.962 51.3881 147.726 51.2495 146.485 51.1899C146.485 51.1899 147.105 51.6549 147.37 51.8699C147.9 52.2364 148.338 52.7207 148.65 53.2849C148.65 53.2849 147.555 52.8999 146.77 52.7049C146.17 52.5559 144.427 51.9636 143.281 51.574C142.926 51.4535 142.629 51.3525 142.44 51.2899C142.336 51.2554 142.199 51.2079 142.04 51.1522C140.974 50.7806 138.875 50.0485 138.44 50.4399C139.013 50.4847 139.556 50.7126 139.99 51.0899C140.474 51.6658 141.076 52.1312 141.755 52.4549C140.017 52.2987 138.266 52.4032 136.56 52.7649C135.212 53.0344 134.268 53.2635 133.517 53.446C132.595 53.6697 131.962 53.8233 131.23 53.8949C129.9 54.0249 126.3 56.0749 125.835 56.3949L125.715 56.4775C125.161 56.8613 123.892 57.7398 123.235 57.9249C123.896 57.9134 124.554 57.816 125.19 57.6349C125.614 57.4815 126.053 57.3709 126.5 57.3049C126.5 57.3049 122.962 61.6139 122.463 63.8387C122.489 63.7361 122.672 63.1665 123.66 62.7449C124.297 62.4727 124.895 62.1143 125.435 61.6799C125.435 61.6799 124.06 64.3849 123.635 65.2749C123.425 65.7139 123.11 66.5034 122.818 67.2333C122.518 67.9831 122.244 68.67 122.135 68.8499C121.909 69.3393 121.709 69.8399 121.535 70.3499C121.976 69.8708 122.467 69.44 123 69.0649C123.578 68.6692 124.126 68.2313 124.64 67.7549C124.64 67.7549 123.31 70.6199 123.175 71.4399C123.132 71.8552 123.043 72.2644 122.91 72.6599C122.824 72.9356 122.556 73.6904 122.24 74.5249H111.23V120.011C109.111 119.974 106.809 119.899 106.405 119.71C106.405 119.71 92.1299 126.28 82.0499 112.56C71.9699 98.8399 81.0499 76.5899 102.345 79.7849C102.345 79.7849 115.22 72.8599 118.995 62.6899C119.771 61.8282 120.415 60.8559 120.905 59.8049L120 60.3799C120.784 58.409 121.242 56.3232 121.355 54.2049C121.355 54.2049 120.91 55.9599 120.4 56.3149L120.265 55.7149C120.202 56.1069 120.083 56.4876 119.91 56.8449C119.91 56.8449 121.105 39.6449 103.255 35.7099C85.1399 31.7099 75.6349 44.9449 75.6799 53.7099C74.8457 55.4327 74.5662 57.3717 74.8799 59.2599C74.8799 59.2599 75.1049 57.4399 75.2999 57.3949C75.2999 57.3949 75.4599 60.3949 75.6149 61.1049C75.7699 61.8149 76.0349 66.2099 75.8999 66.3199C75.7649 66.4299 74.8999 67.0999 73.8999 65.4349C72.8999 63.7699 71.8999 62.6999 71.1699 62.4349C71.1699 62.4349 71.7699 63.8099 71.7249 64.3649C71.2134 63.6357 70.6485 62.9455 70.0349 62.2999C69.4876 61.824 67.8531 60.3651 67.7745 58.6346C67.7749 58.4688 67.7749 58.3699 67.7749 58.3699C67.7705 58.4588 67.7705 58.5471 67.7745 58.6346C67.7728 59.4248 67.7627 61.7356 67.7049 62.1199C67.6758 62.313 67.6286 62.6104 67.5802 62.9159L67.5795 62.92C67.5115 63.3488 67.4411 63.7926 67.4149 63.9849C67.3272 64.9162 67.3272 65.8536 67.4149 66.7849C67.5499 67.1649 68.1899 68.9849 68.3699 69.5149C68.5499 70.0449 69.2599 71.1599 72.2349 71.3349C72.2349 71.3349 71.7349 72.0899 71.3649 72.1599C70.9949 72.2299 70.4799 72.2699 70.4799 72.2699C70.4799 72.2699 71.2999 72.9349 73.7649 72.3799C76.2299 71.8249 75.4099 72.2049 75.4099 72.2049C74.9354 72.5484 74.4337 72.8527 73.9099 73.1149C73.9099 73.1149 76.1749 73.9799 78.9949 71.6449V72.2249L79.9949 71.1149C80.1502 70.9354 80.2668 70.5909 80.3862 70.2382C80.4897 69.9326 80.5952 69.6208 80.7299 69.4049C81.0199 68.9399 81.0599 67.3199 81.0599 67.3199C81.4421 67.8247 81.718 68.4018 81.871 69.0162C82.024 69.6307 82.0508 70.2698 81.9499 70.8949C82.2436 69.8868 82.3224 68.8283 82.1811 67.7878C82.0399 66.7474 81.6817 65.7482 81.1299 64.8549C80.8258 63.8516 80.4686 62.8652 80.0599 61.8999C79.4399 60.4549 76.7099 53.1949 79.8399 47.1999C82.9699 41.2049 88.4049 36.9999 99.9249 37.4199C99.9249 37.4199 113.45 39.4199 115.315 52.9199C117.18 66.4199 105.655 75.3699 97.9299 74.6349C97.9299 74.6349 84.2049 81.6949 79.8749 86.0899C75.742 90.2848 73.4311 95.4546 73.2293 96.7861L73.3499 95.4199C73.3499 95.4199 72.5149 96.2499 72.1849 98.8499C72.1849 98.8499 71.9149 95.1199 72.4849 93.6499C72.4849 93.6499 71.3149 96.2149 71.3499 97.1849C71.3541 97.3035 71.3574 97.4679 71.3613 97.6694C71.3898 99.1148 71.4557 102.466 72.2149 104.48L71.1149 102.71C71.3526 103.294 71.5432 103.896 71.6849 104.51C71.7471 105.026 71.8817 105.531 72.0849 106.01C72.2149 106.275 73.4149 108.34 73.7499 108.875C74.0849 109.41 74.7149 110.54 75.3449 111.805C75.9749 113.07 80.3749 120.5 95.8449 124.16C99.1051 124.54 102.39 124.664 105.67 124.53C106.058 124.513 106.454 124.493 106.857 124.473H106.861C108.267 124.404 109.754 124.33 111.23 124.344V143.615C111.185 144.05 111.155 146.355 115.005 150.355C117.718 153.163 121.652 156.097 126.769 159.135C125.719 161.354 122.655 165.898 114.06 170.49C114.06 170.49 115.095 173.19 112.33 175.52L113.43 175.485C113.43 175.485 113.46 175.955 112.73 176.085C112.527 176.118 112.341 176.218 112.203 176.37C112.064 176.521 111.98 176.715 111.965 176.92C111.965 176.92 116.795 174.285 119.155 178.185C119.155 178.185 123.22 179.685 125.02 186.01C125.02 186.01 127.285 186.01 128.185 189.04C128.606 190.456 128.429 191.596 128.278 192.569C128.106 193.677 127.967 194.569 128.785 195.405C128.977 194.936 129.261 194.512 129.621 194.156C129.981 193.8 130.409 193.521 130.88 193.335C130.88 193.335 131.015 191.505 130.65 190.705C130.285 189.905 129.98 187.41 130.48 185.545C130.48 185.545 132.745 184.245 133.745 186.81C133.745 186.81 136.045 188.11 136.275 189.175L136.294 189.262C136.507 190.253 136.557 190.482 136.975 190.74C137.249 190.914 137.487 191.14 137.675 191.405C137.675 191.405 137.675 190.705 137.91 190.54C137.91 190.54 139.61 189.605 138.11 188.01C136.658 186.467 136.579 185.757 136.516 185.2L136.51 185.145C136.51 185.145 133.615 184.945 132.715 182.18L133.5 181.5C133.5 181.5 135.4 181.1 136.195 180.9C136.833 180.739 138.058 181.546 138.602 181.903C138.735 181.991 138.827 182.052 138.86 182.065C139.025 182.13 140.895 182.2 141.125 182.2C141.171 182.2 141.229 182.155 141.306 182.095C141.608 181.86 142.204 181.396 143.56 182.565C143.56 182.565 143.59 180.9 142.39 180.37C142.421 179.958 142.318 179.547 142.096 179.198C141.875 178.849 141.546 178.582 141.16 178.435C141.16 178.435 138.63 180.4 137.495 177.435H136.695C137.426 175.995 138.677 174.886 140.195 174.335C140.484 174.488 140.815 174.544 141.138 174.497C141.462 174.449 141.762 174.3 141.995 174.07C142.296 173.821 142.467 173.604 142.604 173.43C142.908 173.045 143.048 172.867 144.06 173.005C143.467 172.232 142.615 171.699 141.66 171.505C139.925 171.07 138.83 171.705 135.7 174.9C135.242 174.963 134.807 175.136 134.43 175.403C134.053 175.67 133.746 176.024 133.535 176.435C132.835 177.83 133.065 178.5 133.065 178.5C132.977 178.793 132.824 179.062 132.615 179.287C132.407 179.511 132.151 179.685 131.865 179.795C130.865 180.195 129.47 180.165 128.835 179.43C127.89 178.557 126.864 177.777 125.77 177.1C125.44 176.9 124.14 174.37 125.075 173.6C126.805 172.403 128.834 171.711 130.935 171.6C131.375 171.587 131.799 171.58 132.209 171.573C134.901 171.53 136.973 171.496 138.795 169.735C139.57 169.422 140.282 168.969 140.895 168.4C140.895 168.4 142.06 168.17 142.125 167.3C142.125 167.3 142.178 167.217 142.268 167.057C143.08 167.423 143.907 167.791 144.75 168.16L144.855 168.205H145.155L145.26 168.16C147.532 167.166 149.695 166.18 151.748 165.202C151.787 165.251 151.817 165.29 151.835 165.315C152 165.55 153.67 167.815 153.67 167.815C154.44 167.052 155.364 166.464 156.382 166.09C157.399 165.717 158.484 165.567 159.565 165.65L159.63 165.95C160.109 165.787 160.627 165.773 161.115 165.91C161.602 166.048 162.036 166.33 162.36 166.72C162.732 166.353 163.037 165.923 163.26 165.45C163.26 165.45 167.92 160.89 171.685 166.62C171.685 166.62 175.45 164.12 177.115 167.685C177.115 167.685 178.88 167.85 180.315 169.915C180.303 169.49 180.258 169.067 180.18 168.65C180.14 168.517 180.069 168.342 179.994 168.157L179.993 168.156C179.879 167.875 179.754 167.57 179.715 167.35C179.71 167.325 179.706 167.297 179.702 167.266C179.64 166.857 179.513 166.016 177.75 165.555C177.659 165.09 177.468 164.649 177.192 164.264C176.916 163.878 176.561 163.556 176.15 163.32C176.669 163.065 177.17 162.776 177.65 162.455C177.65 162.455 181.045 160.455 184.71 163.255L184.44 162.69C184.44 162.69 184.94 160.69 183.21 160.025C183.21 160.025 180.71 160.655 179.58 159.09C178.45 157.525 181.18 157.39 181.18 157.39C181.532 156.925 181.992 156.552 182.519 156.303C183.047 156.054 183.627 155.936 184.21 155.96C183.43 155.363 182.482 155.028 181.5 155C181.478 154.877 181.432 154.76 181.365 154.655C181.298 154.55 181.211 154.46 181.109 154.389C181.007 154.318 180.891 154.267 180.77 154.241C180.648 154.215 180.522 154.213 180.4 154.235C179.951 154.291 179.519 154.439 179.13 154.669C178.74 154.898 178.402 155.205 178.135 155.57C177.635 156.235 176.37 157.3 175.835 155.57C175.513 154.615 175.456 153.59 175.67 152.605C175.67 152.605 177.97 151.77 177.27 150.275C177.817 149.664 178.582 149.292 179.4 149.24C179.198 149.093 178.973 148.98 178.735 148.905C178.539 148.862 177.432 148.677 176.438 148.739C178.846 145.744 178.818 143.987 178.775 143.615V104.343C179.125 104.103 179.509 103.889 179.93 103.715C179.93 103.715 180.895 103.515 181.93 101.92C182.223 102.082 182.464 102.326 182.624 102.621C182.783 102.916 182.855 103.25 182.83 103.585C183.203 102.907 183.472 102.177 183.63 101.42C183.909 101.595 184.212 101.728 184.53 101.815C184.53 101.815 184.46 98.7549 187.26 98.5849C188.948 98.4824 189.52 99.2672 190.221 100.228C190.682 100.86 191.198 101.568 192.125 102.15C194.46 103.615 192.99 104.415 192.99 104.415C192.99 104.415 193.555 105.815 194.155 106.215C194.155 106.215 194.485 103.885 195.055 103.45C195.055 103.45 195.12 102.915 194.855 102.685C194.762 102.604 194.742 102.51 194.718 102.397C194.674 102.187 194.616 101.909 194.055 101.52C193.19 100.92 191.79 98.4549 191.925 96.8899C192.137 96.7193 192.387 96.6041 192.655 96.5549C192.691 96.5549 192.77 96.5496 192.883 96.5419C193.711 96.4862 196.382 96.3063 197.82 97.1549C198.983 97.8415 199.233 98.4117 199.388 98.7664C199.451 98.9102 199.498 99.0185 199.585 99.0849C199.885 99.3149 200.45 99.9849 200.05 100.65C200.308 100.381 200.532 100.08 200.715 99.7549C200.725 99.6952 200.718 99.5029 200.708 99.249C200.685 98.6316 200.648 97.6494 200.815 97.3199C201.05 96.8549 200.05 95.9549 199.415 95.5899C199.202 95.4673 199.053 95.2844 198.89 95.0841C198.567 94.688 198.189 94.2241 197.15 94.0249C195.823 93.68 194.538 93.1886 193.32 92.5599C193.985 91.887 194.607 91.174 195.185 90.4249C195.185 90.4249 195.82 89.8599 197.685 90.3249C199.55 90.7899 200.385 90.3949 200.75 89.8249C200.75 89.8249 201.215 88.5299 203.415 89.6299L203.08 89.0599C203.08 89.0599 201.48 87.7299 200.65 87.4949C199.82 87.2599 196.585 87.1949 196.585 87.1949C196.585 87.1949 195.685 86.8649 196.255 85.6949C196.825 84.5249 196.42 83.8599 196.42 83.8599L197.085 82.9599C197.444 82.9416 197.791 82.8269 198.09 82.6281C198.389 82.4293 198.629 82.1535 198.785 81.8299C199.25 80.7299 199.45 80.2649 200.65 80.4649L200.15 79.9999C200.15 79.9999 198.12 78.7299 196.72 79.8299C195.802 80.4568 195.085 81.3353 194.655 82.3599C194.595 82.4996 194.527 82.6778 194.451 82.8783C194.145 83.6821 193.702 84.8448 193.09 85.3249C192.596 85.7119 192.475 86.307 192.363 86.8591C192.301 87.1627 192.242 87.454 192.125 87.6899C191.795 88.3549 189.89 91.4899 189.66 91.4899C189.43 91.4899 188.79 91.4549 188.79 91.4549C188.269 91.8758 187.653 92.161 186.995 92.2849C186.728 92.3223 186.483 92.3904 186.225 92.4622C185.552 92.6495 184.788 92.8621 183.295 92.6199C181.798 92.3784 180.288 92.2318 178.775 92.1805V81.1987C179.11 81.2597 179.428 81.3979 179.703 81.6041C180.06 81.8719 180.328 82.2418 180.47 82.6649C180.466 81.9554 180.232 81.2662 179.805 80.6999L180.77 80.3699C180.77 80.3699 177.975 76.5699 182.27 74.6049C186.565 72.6399 187.8 72.8399 190.03 73.8049C190.828 74.0051 191.576 74.3696 192.225 74.8749C192.225 74.8749 194.225 75.2399 194.695 76.8399C194.695 76.8399 195.26 75.7049 194.56 74.8749C194.668 74.5155 194.658 74.131 194.532 73.7775C194.406 73.424 194.171 73.12 193.86 72.9099C193.525 72.6862 193.2 72.6417 192.817 72.5895C191.942 72.47 190.768 72.3096 188.5 69.8749C188.5 69.8749 188.23 66.0449 192.86 67.2449C193.607 66.9555 194.419 66.871 195.21 67.0003C196.001 67.1295 196.743 67.4677 197.36 67.9799C197.38 67.7138 197.33 67.447 197.213 67.207C197.096 66.9671 196.917 66.7627 196.695 66.6149C196.695 66.6149 196.93 65.9149 196.03 65.1499C195.926 65.0617 195.833 64.9788 195.746 64.9019C195.08 64.3116 194.814 64.0766 193.43 64.5499C192.302 64.9354 191.935 64.7653 191.556 64.5897C191.409 64.5216 191.26 64.4526 191.065 64.4149C190.365 64.2799 188.935 64.9149 188.935 64.9149C188.935 64.9149 189.4 63.0149 191 62.6499C191 62.6499 193.03 61.3499 193.2 61.1849C193.225 61.1601 193.248 61.1105 193.279 61.0442C193.453 60.6689 193.875 59.7604 196.395 59.8199C196.096 59.5269 195.747 59.2898 195.365 59.1199C194.83 58.9199 193.065 58.2849 192.83 58.5549C192.357 58.7258 191.865 58.8367 191.365 58.8849C190.705 58.9587 190.167 59.6853 189.81 60.1679C189.683 60.3395 189.579 60.4804 189.5 60.5499C189.2 60.8149 188.405 61.4499 188.405 61.4499C188.405 61.4499 187.735 61.1849 187.97 60.1199C188.272 59.0436 188.639 57.9867 189.07 56.9549C189.07 56.9549 190.865 57.0199 191.265 55.6199C191.392 55.1744 191.408 54.8039 191.421 54.5025C191.449 53.8566 191.463 53.5281 192.53 53.4599C191.794 53.1506 190.995 53.0236 190.2 53.0899C189.769 53.4744 189.313 53.8302 188.835 54.1549C188.165 54.6253 187.655 55.2878 187.37 56.0549C187.37 56.0549 186.07 57.3899 185.84 58.2849C185.702 58.9039 185.501 59.5071 185.24 60.0849C185.224 60.1129 185.2 60.1485 185.169 60.1937C184.87 60.6318 183.959 61.968 184.14 66.0149C184.14 66.0149 182.975 67.9799 179.61 67.9099C179.61 67.9099 181.04 68.2099 181.44 68.2449L175.5 72.6549C175.5 72.6549 177.23 71.8249 177.63 71.7249C178.03 71.6249 178.76 71.3599 178.76 71.3599L177.13 73.6249C177.13 73.6249 176.739 73.9786 176.093 74.5249H168.614C168.612 74.3192 168.48 74.0976 168.325 74.0199C168.293 74.0038 168.239 73.9725 168.169 73.9308C167.647 73.6235 166.162 72.7496 164.965 73.1899C164.554 73.3409 164.264 73.5311 163.983 73.7149C163.335 74.1395 162.74 74.5293 160.835 74.3199C160.413 73.8124 160.022 73.2798 159.665 72.7249C159.6 72.4899 159.335 71.4599 160.8 70.7599C161.542 70.3815 162.311 70.0573 163.1 69.7899C163.168 69.7803 163.245 69.7635 163.328 69.745C163.813 69.6382 164.538 69.478 165.365 70.3599C166.245 71.1667 167.23 71.8497 168.295 72.3899C168.295 72.3899 170.795 72.7899 171.39 71.3899C171.39 71.3899 168.695 72.1249 167.63 70.7899C167.297 70.3721 167.071 69.968 166.866 69.6028C166.418 68.801 166.074 68.1864 164.93 68.0249L162.54 67.9999ZM112.33 75.6199H121.814C121.687 75.9357 121.561 76.2381 121.445 76.5049C121.385 76.6319 121.324 76.7586 121.262 76.885H113.29V120.037C112.993 120.034 112.67 120.031 112.33 120.027V75.6199ZM114.385 78H120.697C120.016 79.2948 119.264 80.5516 118.445 81.7649C117.942 82.4183 117.097 83.8161 116.494 84.8147C116.216 85.2753 115.988 85.6516 115.87 85.8299C115.495 86.3949 114.96 87.2499 114.96 87.2499C114.96 87.2499 116.825 85.8049 117.135 85.4749C117.194 85.4117 117.296 85.3044 117.423 85.1697L117.425 85.1684C117.964 84.599 118.966 83.5417 119.2 83.2549C119.594 82.8775 120.026 82.5424 120.49 82.2549C120.261 82.6026 120.092 82.9863 119.99 83.3899C119.952 83.583 119.849 83.8433 119.731 84.139C119.512 84.6932 119.244 85.3715 119.26 85.9649C119.26 85.9649 120.215 85.8299 120.59 85.8299C120.888 85.8211 121.186 85.791 121.48 85.7399L121.745 85.4999C121.69 85.6619 121.653 85.8296 121.635 85.9999C121.635 86.1031 121.526 87.5368 121.414 89.0206L121.413 89.0246C121.357 89.7676 121.3 90.523 121.255 91.1299C121.205 91.7993 121.21 92.6459 121.216 93.5406C121.225 95.0784 121.235 96.7587 120.97 97.9249C120.97 97.9249 120.815 101.275 120.88 102.01C120.88 102.01 121.19 101.165 121.3 100.92L121.312 100.893L121.324 100.864L121.354 100.793L121.355 100.792C121.548 100.335 122.104 99.0234 122.655 98.5699C123.213 98.1109 123.576 96.8583 123.775 96.1749C123.797 96.0989 123.817 96.0299 123.835 95.9699C124.015 95.3699 125.03 92.4699 125.03 92.4699C125.03 92.4699 123.41 97.5999 123.81 100.47C123.942 101.418 124.21 102.467 124.477 103.511C125.018 105.627 125.554 107.725 124.945 108.93L125.1 110.66C125.592 110.062 126.125 109.499 126.695 108.975C126.77 108.929 126.917 108.779 127.124 108.567C127.843 107.831 129.287 106.353 130.96 105.93C130.96 105.93 127.185 111.26 126.785 117.19C126.785 117.19 128.01 114.1 129.45 113.08C130.291 112.482 131.175 111.947 132.095 111.48C132.095 111.48 131.205 114.98 130.94 115.79C130.867 116.013 130.769 116.303 130.661 116.62C130.378 117.454 130.031 118.476 129.915 118.965C129.774 119.495 129.597 120.014 129.385 120.52C129.385 120.52 129.095 125.36 129.16 125.625C129.225 125.89 129.52 125.16 129.52 125.16C130.034 124.353 130.629 123.601 131.295 122.915C131.835 122.372 132.291 121.752 132.65 121.075C132.65 121.075 132.315 125.425 131.405 127.845C130.495 130.265 128.875 133.02 128.05 133.485L128.01 134.175C128.01 134.175 125.72 137.435 124.51 138.995C124.51 138.995 125.73 136.57 126.01 136.24C126.29 135.91 127.765 133.74 127.765 133.74C127.765 133.74 127.765 129.835 126.32 127.595C125.748 126.708 125.434 126.182 125.228 125.838C124.915 125.313 124.855 125.213 124.52 124.905C124.069 124.174 123.568 123.476 123.02 122.815C122.285 121.975 120.445 120.065 119.735 119.73L120.465 120.975C119.974 120.456 119.438 119.981 118.865 119.555C118.245 119.155 114.69 117.51 114.69 117.51C114.69 117.51 116.845 120.01 116.715 120.11C116.585 120.21 115.47 119.465 115.47 119.465L115.135 119.355C115.135 119.355 116.135 120.085 115.98 120.2C115.879 120.275 115.636 120.214 115.38 120.15C115.244 120.116 115.103 120.081 114.98 120.065C114.926 120.058 114.713 120.053 114.385 120.049V78ZM112.33 124.371C112.652 124.385 112.972 124.404 113.29 124.429V142.67C113.245 143.09 113.225 145.285 116.835 149.02C119.289 151.557 122.804 154.205 127.349 156.944C127.34 157.209 127.319 157.473 127.285 157.735C127.285 157.735 127.262 157.856 127.191 158.081C121.509 154.688 118.098 151.908 116.06 149.85C112.135 145.9 112.33 143.735 112.33 143.735V124.371ZM142.755 166.065C142.886 165.767 143.025 165.419 143.163 165.024C143.686 165.257 144.215 165.491 144.75 165.725L144.855 165.775H145.15L145.26 165.725C147.321 164.823 149.287 163.929 151.155 163.041C150.922 163.251 150.672 163.443 150.405 163.615C150.405 163.615 150.697 163.953 151.018 164.33C149.154 165.217 147.156 166.131 145.015 167.07C144.243 166.731 143.49 166.396 142.755 166.065ZM145.01 164.64C147.764 163.432 150.266 162.268 152.538 161.152C152.656 160.894 152.756 160.626 152.835 160.35C153.267 160.43 153.678 160.441 154.062 160.394C154.835 160.004 155.58 159.62 156.297 159.242C157.012 158.483 157.442 157.444 157.5 156.39C157.625 154.125 155.06 151.59 150.5 151.26C147.69 151.09 144.89 151.721 142.425 153.08C141.922 152.783 141.384 152.548 140.825 152.38C139.991 152.134 139.561 151.031 139.343 150.472C139.326 150.428 139.31 150.387 139.295 150.35L138.06 147.285C138.06 147.285 138.16 149.285 138.495 149.75C138.641 149.953 138.831 150.342 139.051 150.792C139.334 151.371 139.668 152.054 140.025 152.58C140.66 153.515 143.49 154.98 143.49 154.98C144.455 158.669 144.087 161.79 143.492 163.967C143.989 164.19 144.495 164.414 145.01 164.64ZM164.018 157.364C164.081 156.91 164.17 156.422 164.296 155.932C168.053 153.552 171.018 151.243 173.17 149.02C176.78 145.285 176.765 143.09 176.72 142.67V106.477C176.985 106.078 177.308 105.659 177.695 105.26V143.72V143.723C177.7 143.812 177.829 145.966 173.97 149.85C172.075 151.761 168.997 154.295 164.018 157.364ZM175.63 142.775V108.475L174.63 107.98L173.665 108.98C169.905 102.585 163.81 106.545 163.81 106.545C169.505 105.045 170.47 107.045 170.47 107.045C167.2 106.409 164.099 115.553 162.385 120.608C162.212 121.118 162.053 121.587 161.91 122C160.345 126.5 156.09 128.885 155.39 129.215C155.255 129.278 155.129 129.375 154.973 129.495C154.321 129.998 153.148 130.901 148.63 131.41C145.17 131.862 141.935 133.375 139.37 135.74C145.6 131.88 149.93 132.145 149.93 132.145C139.565 136.815 143.93 142.145 143.93 142.145C153.11 140.331 155.959 139.076 157.721 138.299C158.932 137.765 159.63 137.458 161.515 137.35C166.145 137.085 166.445 139.45 166.445 139.45C167.396 140.105 168.219 140.929 168.875 141.88C169.61 143.145 170.175 146.245 170.175 146.245C169.833 145.665 169.285 145.236 168.64 145.045C168.872 147.039 168.35 149.047 167.175 150.675C167.175 150.675 167.245 151.07 165.48 153.335C165.275 153.598 165.096 153.886 164.94 154.189C168.376 151.92 170.641 150.013 172.13 148.515C175.748 144.877 175.635 142.863 175.63 142.778V142.775ZM177.695 92.16C177.37 92.1588 177.045 92.1619 176.72 92.1694V90.9668C176.919 90.9726 177.115 90.9596 177.3 90.9199C177.3 90.9199 177.034 90.6742 176.72 90.2855V86.2169C177.067 85.7967 177.403 85.3572 177.695 84.9052V92.16ZM175.63 92.211V90.7863C175.099 90.6387 174.705 90.4549 174.705 90.4549L174.935 92.2549C175.166 92.238 175.398 92.2234 175.63 92.211ZM167.13 80.2849C168.424 79.9388 170.02 79.0346 171.554 78H159.759C157.648 78.921 156.37 80.8149 156.37 80.8149L156.405 81.0849C156.405 81.0849 154.97 80.2199 154.405 79.8849C154.166 79.7433 153.356 78.9124 152.5 78H152.141C152.932 78.9679 153.759 79.9165 154.24 80.2849C155.035 80.8933 157.249 81.9766 159.073 82.8685C159.842 83.2447 160.541 83.5868 161.035 83.8449C162.7 84.7149 166.095 86.8099 166.095 86.8099L166.395 86.7099C166.601 87.2603 166.847 87.795 167.13 88.3099C167.896 89.6283 168.836 90.8376 169.925 91.9049C171.86 93.8049 173.325 92.5049 173.325 92.5049C172.212 92.593 171.106 92.2612 170.225 91.5749C170.043 90.8466 169.85 90.5364 169.592 90.1222C169.425 89.854 169.231 89.5421 168.995 89.0449C168.395 87.7799 166.66 86.2449 166.66 86.2449C169.13 82.3149 167.13 80.2849 167.13 80.2849ZM174.764 75.6199C174.265 76.0196 173.711 76.4507 173.126 76.885H167.699C167.628 76.594 167.604 76.2918 167.63 75.9899C167.63 75.9899 167.682 75.8241 167.775 75.6199H174.764ZM151.25 76.885H151.466C150.984 76.3608 150.563 75.896 150.314 75.6199H150.275C150.482 75.8933 150.833 76.3539 151.25 76.885ZM163.88 159.7C163.88 159.7 163.865 159.328 163.892 158.745C168.031 156.244 171.363 153.815 173.868 151.471C173.586 152.51 173.422 153.772 173.47 155.07C173.47 155.07 172.64 155.87 172.705 156.37C172.732 156.947 172.721 157.525 172.67 158.1C172.67 158.1 169.975 159.765 163.88 159.7ZM126.689 155.227C126.891 155.353 127.096 155.48 127.305 155.609C127.105 153.48 126.348 151.547 126.099 150.958C126.608 152.221 126.683 154.278 126.689 155.227ZM117.885 148.515C118.841 149.477 120.118 150.608 121.82 151.896C120.486 150.31 119.427 148.498 118.86 146.91C118.039 144.611 119.55 142.272 120.615 140.623C120.848 140.263 121.059 139.936 121.22 139.65C122.12 138.05 124.15 132.325 121.055 127.96C119.542 125.826 117.104 124.903 114.385 124.544V142.79C114.385 142.79 114.205 144.815 117.885 148.515Z" fill="#AC3033"/>
<path d="M96.0249 70.94C96.3286 70.8301 96.6001 70.6462 96.8149 70.405L99.4149 70.44C99.4149 70.44 96.9699 70.94 96.7649 70.94H96.0249Z" fill="#AC3033"/>
<path d="M102.27 69.325L101.725 69.61L101.675 69.735L101.8 69.725L102.27 69.325Z" fill="#AC3033"/>
<path d="M101.53 69.8098C101.435 69.8098 101.5 69.6748 101.5 69.6748L101.145 69.8598L101.03 70.0098L100.915 70.1048C100.915 70.1048 100.785 70.2898 100.85 70.2898C101.046 70.2211 101.238 70.1409 101.425 70.0498C101.518 69.9756 101.607 69.8955 101.69 69.8098H101.53Z" fill="#AC3033"/>
<path d="M95.3301 70.345L95.2101 70.44L94.6051 70.48L94.4901 70.365L94.3951 70.45C94.3951 70.45 93.5451 70.515 93.4401 70.49C93.3351 70.465 92.3501 70.115 92.3501 70.115C92.3501 70.115 93.5151 70.05 93.5651 70.07L93.6401 70.105L93.5751 70.315L93.8051 70.085H94.3651C94.4708 70.1204 94.5744 70.1621 94.6751 70.21L95.3301 70.345Z" fill="#AC3033"/>
<path fill-rule="evenodd" clip-rule="evenodd" d="M89.1088 41.8077C91.5105 40.4315 94.232 39.7114 97.0001 39.7199C99.0713 39.71 101.124 40.1101 103.04 40.8973C104.956 41.6844 106.697 42.8429 108.163 44.3061C109.629 45.7693 110.79 47.5082 111.581 49.4225C112.372 51.3368 112.776 53.3887 112.77 55.4599C112.745 58.2531 111.994 60.9917 110.592 63.4075C109.189 65.8232 107.183 67.833 104.77 69.2399C105.355 68.5953 105.974 67.9827 106.625 67.4049C106.846 67.1469 107.082 66.9015 107.33 66.6699L108 65.9999C107.565 66.3455 107.098 66.6485 106.605 66.9049C106.277 67.0611 105.975 67.2669 105.71 67.5149L104.36 68.4099L106.7 66.2349C105.85 66.9849 103.035 68.8899 103.035 68.8899C103.035 68.8899 103.85 68.0549 104.335 67.6199C104.82 67.1849 107.035 64.3549 107.035 64.3549C106.295 65.1699 104.505 67.0299 104.105 67.4399C103.705 67.8499 101.94 69.4549 101.635 69.5049C101.281 69.6007 100.935 69.7244 100.6 69.8749L101.84 68.4349L100.435 68.6649C100.118 68.8715 99.7831 69.0505 99.4351 69.1999C99.1551 69.2749 98.2651 69.6049 98.2651 69.6049H96.7651C96.6518 69.4647 96.5576 69.31 96.4851 69.1449L95.6701 68.9449L95.1351 69.3749L94.3451 68.8749L94.4701 69.4349C94.2013 69.2052 93.9117 69.0009 93.6051 68.8249C93.099 68.4911 92.6146 68.1254 92.1551 67.7299L91.3151 67.1699C91.4725 67.3707 91.6004 67.593 91.6951 67.8299C91.7871 68.1152 92.3958 68.6334 92.8157 68.9909C92.8521 69.0219 92.887 69.0516 92.9201 69.0799C93.3351 69.4349 93.8351 69.7949 93.8351 69.7949L93.7851 69.8949H93.4551C93.162 69.7931 92.6999 69.7307 92.2625 69.6717C91.8193 69.6119 91.4013 69.5555 91.2101 69.4649C91.0629 69.3952 90.6862 69.2452 90.2532 69.0728C89.5681 68.8001 88.7419 68.4711 88.4601 68.3149C87.9914 68.0022 87.5484 67.6528 87.1351 67.2699C87.1351 67.2699 87.7701 67.6549 88.6351 68.1149C89.393 68.4707 90.1769 68.7683 90.9801 69.0049C88.4401 68.0349 85.8101 65.8949 85.4801 65.6149C85.1501 65.3349 84.5401 64.7499 84.2051 64.3899C84.1022 64.28 83.8712 64.0192 83.6028 63.7163C83.4927 63.5921 83.3764 63.4608 83.2601 63.3299C81.8852 60.9274 81.1668 58.2054 81.1769 55.4374C81.1869 52.6694 81.9252 49.9527 83.3175 47.5603C84.7098 45.1678 86.7071 43.1839 89.1088 41.8077ZM96.8901 43.9999L88.5001 48.8149C88.2751 48.9549 88.2751 49.1749 88.5001 49.3099L96.8901 54.1499C97.0237 54.2164 97.1709 54.251 97.3201 54.251C97.4693 54.251 97.6165 54.2164 97.7501 54.1499L106.125 49.3349C106.36 49.1949 106.36 48.9749 106.125 48.8349L97.7501 43.9999C97.6165 43.9334 97.4693 43.8988 97.3201 43.8988C97.1709 43.8988 97.0237 43.9334 96.8901 43.9999ZM87.2601 50.0649V55.3999L87.2701 59.7549C87.2701 59.9999 87.4601 60.1399 87.7001 59.9999L96.0651 55.1549C96.1194 55.1394 96.1672 55.1066 96.2012 55.0615C96.2353 55.0164 96.2537 54.9614 96.2537 54.9049C96.2537 54.8484 96.2353 54.7934 96.2012 54.7483C96.1672 54.7032 96.1194 54.6704 96.0651 54.6549L87.6901 49.8149C87.4501 49.6799 87.2601 49.7949 87.2601 50.0649ZM88.8073 67.4921C88.9449 67.5891 89.0931 67.6936 89.2601 67.8049H89.2751C90.0268 68.3094 90.8296 68.7335 91.6701 69.0699C91.6701 69.0699 90.3601 68.2299 90.1701 68.0699C90.0678 67.9838 89.7973 67.7672 89.5258 67.5497C89.293 67.3632 89.0593 67.1761 88.9301 67.0699C88.7921 66.9566 88.6092 66.8723 88.4453 66.7969C88.2767 66.7193 88.1284 66.651 88.0701 66.5699C87.9551 66.4099 87.3501 65.7649 87.3501 65.7649L87.2251 65.5549L87.6451 65.7849C87.6451 65.7849 87.2001 65.4599 87.0551 65.3849L86.2601 64.9649C86.2601 64.9649 87.1101 65.9699 87.4101 66.2949C87.6543 66.609 87.9402 66.8883 88.2601 67.1249C88.4364 67.2307 88.611 67.3538 88.8073 67.4921ZM88.6101 66.4749L87.9101 65.9299L88.3801 66.4099L88.6101 66.4749ZM91.9101 68.9199V68.7699H91.9001C91.9001 68.7699 91.4801 68.4749 91.2901 68.3299C91.1998 68.261 91.0091 68.1053 90.8118 67.9441C90.5938 67.766 90.3677 67.5813 90.2601 67.4999C90.0551 67.3449 89.0551 66.7149 89.0551 66.7149L90.0551 67.5349C90.0932 67.5647 90.1407 67.6017 90.1947 67.6436C90.4664 67.8546 90.8998 68.1913 91.1001 68.3749C91.3552 68.5777 91.6261 68.76 91.9101 68.9199ZM97.7501 65.8399L106.125 60.9999C106.179 60.9844 106.227 60.9516 106.261 60.9065C106.295 60.8614 106.314 60.8064 106.314 60.7499C106.314 60.6934 106.295 60.6384 106.261 60.5933C106.227 60.5482 106.179 60.5154 106.125 60.4999L97.7401 55.6649C97.6065 55.5984 97.4593 55.5638 97.3101 55.5638C97.1608 55.5638 97.0137 55.5984 96.8801 55.6649L88.5001 60.4999C88.4457 60.5154 88.3979 60.5482 88.3639 60.5933C88.3299 60.6384 88.3115 60.6934 88.3115 60.7499C88.3115 60.8064 88.3299 60.8614 88.3639 60.9065C88.3979 60.9516 88.4457 60.9844 88.5001 60.9999L96.8901 65.8399C97.0237 65.9064 97.1709 65.941 97.3201 65.941C97.4693 65.941 97.6165 65.9064 97.7501 65.8399ZM98.4401 55.1649L106.815 59.9999C107.05 60.1249 107.245 59.9999 107.245 59.7499V50.0749C107.245 49.8249 107.05 49.6899 106.815 49.8249L98.4401 54.6649C98.3857 54.6804 98.3379 54.7132 98.3039 54.7583C98.2699 54.8034 98.2515 54.8584 98.2515 54.9149C98.2515 54.9714 98.2699 55.0264 98.3039 55.0715C98.3379 55.1166 98.3857 55.1494 98.4401 55.1649ZM107.31 65.7949C107.56 65.6199 107.94 65.3099 108.06 65.2099V65.1949C108.354 64.862 108.629 64.5131 108.885 64.1499C108.885 64.1499 107.78 65.3799 107.31 65.7949ZM107.145 65.9249L107.31 65.7949C107.261 65.8453 107.206 65.889 107.145 65.9249ZM108.235 65.7349C108.235 65.7349 108.805 65.1349 108.875 65.0449V65.0299C108.94 64.9449 109.36 64.0899 109.36 64.0899L109.21 64.2349L108.235 65.7349ZM109.505 63.8449C109.505 63.8449 109.875 63.2699 109.965 63.1149V63.0999C110.05 62.9499 110.555 61.5999 110.555 61.5999C110.555 61.5999 109.895 62.9349 109.81 63.0999C109.725 63.2649 109.445 63.7649 109.445 63.7649L109.505 63.8449ZM111.195 59.9749L110.72 61.3199L111.035 60.5249L111.195 59.9749Z" fill="#AC3033"/>
</svg>