<svg xmlns:xlink="http://www.w3.org/1999/xlink" xmlns="http://www.w3.org/2000/svg" width="430" height="232" viewBox="0 0 430 232" fill="none">
<g opacity="0.1">
<path d="M94.8747 185.465H36.2397L145.195 18.8801L174.51 63.7051L94.8747 185.465Z" fill="#D29E26"/>
<path d="M207.305 113.835L160.465 185.465H101.82L177.985 69.0151L207.305 113.835Z" fill="#D29E26"/>
<path d="M210.785 108.53L240.1 63.7051L210.785 18.8801L181.46 63.7051L210.785 108.53Z" fill="#D29E26"/>
<path d="M247.04 63.7051L276.365 18.8801L385.32 185.465H326.685L247.04 63.7051Z" fill="#D29E26"/>
<path d="M319.735 185.465L243.57 69.0151L214.245 113.835L261.105 185.465H319.735Z" fill="#D29E26"/>
<path d="M210.785 119.145L254.155 185.465H167.4L210.785 119.145Z" fill="#D29E26"/>
</g>
<path fill-rule="evenodd" clip-rule="evenodd" d="M146.135 142.1C146.298 142.187 146.451 142.293 146.59 142.415C144.906 142.61 143.199 142.434 141.59 141.9C140.415 141.515 138.705 141.18 138.705 141.18C139.91 142.165 141.57 144.66 141.76 145.05C141.95 145.44 142.625 146.55 142.625 146.55C141.615 146.485 140.612 146.339 139.625 146.115C139.625 146.115 140.055 146.425 140.125 146.645C140.323 146.939 140.558 147.206 140.825 147.44C140.168 147.341 139.537 147.111 138.97 146.765C139.645 147.68 140.365 150.085 140.365 150.085C140.252 150.161 140.147 150.25 140.055 150.35C140.004 150.414 140.174 150.519 140.363 150.636C140.543 150.748 140.741 150.87 140.775 150.975C140.814 151.096 141.114 151.812 141.398 152.491C141.619 153.019 141.831 153.525 141.905 153.715C142.075 154.15 142.315 154.85 142.075 154.825C141.892 154.806 138.358 151.099 136.545 149.196L136.543 149.194C135.982 148.605 135.585 148.189 135.505 148.11C135.271 147.879 135.107 147.682 134.927 147.463C134.846 147.365 134.761 147.262 134.665 147.15C134.436 146.83 134.187 146.524 133.92 146.235C133.675 146.045 132.235 144.095 132.235 144.095C132.235 144.095 133.655 146.79 133.87 147.295C133.989 147.576 134.485 148.458 134.921 149.233V149.234C135.269 149.853 135.578 150.402 135.625 150.52C135.643 150.565 135.741 150.757 135.897 151.061C136.65 152.528 138.747 156.611 139.625 159.49C140.685 162.965 139.315 164.205 139.125 163.965C138.799 163.701 138.409 163.528 137.995 163.465C137.626 163.308 137.288 163.088 136.995 162.815C137.36 163.155 137.625 165.005 137.625 165.005L137.67 167.17C137.629 167.363 137.539 167.541 137.408 167.689C137.278 167.836 137.111 167.947 136.925 168.01C136.325 168.155 133.22 168.01 133.22 168.01C133.209 168.088 133.172 168.159 133.115 168.212C133.057 168.265 132.983 168.296 132.905 168.3C132.672 168.3 131.932 167.721 131.226 167.168L131.22 167.164L130.985 166.98C130.335 166.475 130.03 165.29 129.945 164.925C130.122 166.257 130.074 167.609 129.805 168.925C129.805 168.925 129.545 169.19 129.305 169.02C128.769 168.603 128.187 168.249 127.57 167.965C127.16 167.817 126.772 167.615 126.415 167.365L126.295 168.275C125.981 168.291 125.591 168.11 125.103 167.885C124.808 167.749 124.477 167.596 124.105 167.46C123.155 167.113 120.621 164.373 119.383 163.034L119.25 162.89C118.07 161.615 114.53 157.32 114.315 156.68C114.1 156.04 113.955 156.18 113.955 156.18C113.94 156.379 113.885 156.573 113.794 156.751C113.703 156.929 113.578 157.086 113.425 157.215C113.177 156.981 112.946 156.732 112.73 156.471C112.374 156.888 111.981 157.323 111.55 157.775C104.925 164.685 92.4548 172.21 74.4998 180.13L74.3698 180.19H73.9948L73.8598 180.13C65.7982 176.566 58.8658 173.101 53.0627 169.735C52.81 169.902 52.5523 170.062 52.29 170.215C52.4748 170.012 52.6628 169.811 52.854 169.614C52.6183 169.476 52.3844 169.339 52.1524 169.202L51.89 169.375L52.1056 169.175C52.0034 169.114 51.9015 169.054 51.8 168.994C51.0945 169.487 50.53 169.87 50.53 169.87C50.53 169.87 51.083 169.301 51.556 168.848C51.4732 168.799 51.3906 168.749 51.3082 168.7C50.6357 169.33 49.3597 170.459 49.1 170.5C48.739 170.619 48.3879 170.766 48.05 170.94L49.32 169.44L47.875 169.675C47.5586 169.888 47.2239 170.072 46.875 170.225C46.585 170.305 45.67 170.645 45.67 170.645L44.125 170.62C44.0077 170.475 43.9102 170.316 43.835 170.145L43 169.94L42.45 170.385L41.635 169.86L41.77 170.435C41.4912 170.199 41.1916 169.988 40.875 169.805C40.3515 169.463 39.8504 169.087 39.375 168.68L38.51 168.105C38.6732 168.312 38.8062 168.541 38.905 168.785C39.01 169.1 39.715 169.705 40.16 170.07C40.605 170.435 41.105 170.8 41.105 170.8L41.05 170.905L40.71 170.93C40.4122 170.828 39.9383 170.764 39.4888 170.702C39.0326 170.64 38.6014 170.581 38.405 170.49C38.2542 170.421 37.8717 170.267 37.4303 170.09C36.7301 169.81 35.8816 169.47 35.575 169.31C35.0937 168.989 34.6389 168.629 34.215 168.235C34.215 168.235 34.825 168.63 35.715 169.1C36.4931 169.468 37.2989 169.774 38.125 170.015C35.505 169.015 32.805 166.805 32.465 166.515C32.125 166.225 31.495 165.62 31.155 165.255C31.0053 165.095 30.5967 164.632 30.1875 164.168L30.1866 164.167L30.185 164.165C28.7699 161.696 28.0299 158.898 28.0391 156.052C28.0484 153.206 28.8067 150.413 30.2378 147.953C30.772 147.035 31.3929 146.176 32.0898 145.385V95.8262C31.067 96.4921 29.6379 97.312 28.0599 98.045C24.9599 99.485 22.4298 99.06 21.9599 98.695C21.6776 98.4758 20.9932 98.2061 20.4362 97.9866C20.0658 97.8407 19.7517 97.7169 19.6499 97.645C19.4924 97.5339 19.7352 97.5199 20.0888 97.4997C20.3079 97.4871 20.5696 97.4721 20.8049 97.43C21.7629 97.0809 22.6923 96.658 23.5849 96.165C19.6423 96.4319 17.7675 95.4373 16.6639 94.8518C16.4238 94.7244 16.2203 94.6165 16.0399 94.545C15.5474 94.35 14.7209 93.9755 13.932 93.6179C13.1029 93.2422 12.315 92.8852 11.9999 92.775C11.8165 92.7061 11.6536 92.5921 11.526 92.4435C11.3984 92.295 11.3103 92.1166 11.2699 91.925C13.1329 92.4182 14.82 92.0152 16.9627 91.5035C17.9481 91.2682 19.0303 91.0098 20.2699 90.805C23.0965 90.3381 24.9247 89.8531 26.4716 89.4427C27.0782 89.2818 27.6415 89.1324 28.2049 89C29.5538 88.6679 30.8577 88.1779 32.0898 87.5412V84.0689C31.3919 84.12 30.8849 84.12 30.8849 84.12C29.8544 84.3457 28.7982 84.4315 27.7449 84.375C24.7049 83.795 23.7049 84.155 23.7049 84.155C24.3538 83.8587 25.022 83.6064 25.7049 83.4C26.228 83.2369 26.6684 82.8788 26.9349 82.4C24.357 83.2398 21.6326 83.5344 18.9349 83.265C17.076 83.0786 15.3036 82.3869 13.8099 81.265C14.4617 81.3239 15.1187 81.2868 15.7599 81.155C16.3699 80.935 17.5249 80.435 17.5249 80.435C11.6799 79.53 10.4599 78.92 9.76985 78.485C9.51649 78.3253 9.09795 78.0388 8.6306 77.7189C7.82518 77.1676 6.87477 76.5171 6.37485 76.245C5.58485 75.815 3.81485 73.935 3.34485 73.18C3.26138 73.0459 3.14968 72.8593 3.01734 72.6382C2.40452 71.6145 1.34912 69.8514 0.604852 69.14C-0.300148 68.275 0.169852 68.275 0.169852 68.275C1.88185 69.621 2.89486 69.9588 3.85866 70.2802C4.48806 70.49 5.09647 70.6929 5.86485 71.165C7.71676 72.2132 9.75437 72.8925 11.8649 73.165C13.3449 73.345 16.8099 73.6 21.6449 73.705C24.0268 73.7919 26.4115 73.7568 28.7899 73.6C28.6411 73.368 28.5091 73.1258 28.3949 72.875C28.3549 72.73 29.0799 72.875 29.0799 72.875C29.0799 72.875 28.3948 72.335 28.1399 72.19C27.6451 71.8787 27.0922 71.6712 26.5149 71.58C26.1983 71.5592 24.9081 71.3365 23.6947 71.127C22.57 70.9328 21.5112 70.75 21.3549 70.75C21.0299 70.75 19.3349 70.28 20.4899 70.205C21.6449 70.13 21.4299 69.63 21.4299 69.63C20.8858 69.6131 20.3433 69.5647 19.8049 69.485C19.3611 69.4001 17.0174 68.264 15.5109 67.5337C15.0655 67.3178 14.6931 67.1373 14.4649 67.03C13.5619 66.5956 12.6929 66.0942 11.8649 65.53C11.7599 65.425 13.3099 65.46 13.3099 65.46C11.6049 64.485 10.8099 62.285 10.8099 62.285C10.3399 60.155 15.4999 60.045 15.4999 60.045C14.018 59.5622 10.4391 55.118 8.98866 53.3169C8.71152 52.9727 8.51209 52.7251 8.41985 52.62C8.0677 52.2188 7.13229 51.4651 6.41075 50.8837C5.95414 50.5158 5.58318 50.2169 5.49985 50.12C5.39297 49.9957 5.6951 50.1112 6.1857 50.2986C6.68197 50.4882 7.37115 50.7516 8.02485 50.915C9.22876 51.1852 10.3851 51.6352 11.4549 52.25C12.3459 52.7346 14.5962 53.0816 16.7032 53.4064C18.096 53.6211 19.4262 53.8262 20.2599 54.055L25.1649 55.425C24.1362 54.8091 23.1596 54.1101 22.2449 53.335C21.6649 52.83 19.8599 51.095 18.7049 49.905C18.4584 49.6511 18.1663 49.3546 17.8528 49.0366C16.697 47.8639 15.2511 46.3968 14.7399 45.685C14.4564 45.2903 13.6376 44.3689 12.8042 43.431C11.7268 42.2185 10.6249 40.9785 10.6249 40.815C10.6249 40.632 10.8678 40.8513 11.2558 41.2013C11.4825 41.4059 11.7587 41.6553 12.0649 41.895C12.371 42.1348 12.8983 42.463 13.4745 42.8216C14.4604 43.4353 15.5896 44.1382 15.9999 44.64C16.5188 45.2229 17.084 45.763 17.6899 46.255C16.1753 44.8712 12.0513 38.5036 10.4754 36.0703L10.4748 36.0693C10.1833 35.6194 9.97915 35.3041 9.89485 35.18C9.7945 35.0323 9.65926 34.8372 9.50535 34.6152C8.83107 33.6427 7.79835 32.1531 7.76985 31.86C7.73485 31.5 9.45485 31.78 11.2349 32.65C13.0149 33.52 13.7349 33.265 13.7349 33.265C12.9469 32.1743 12.2591 31.0145 11.6799 29.8C11.4053 29.1692 10.527 28.0335 9.82992 27.1322C9.33351 26.4903 8.92897 25.9672 8.89985 25.83C8.86271 25.6549 8.73547 25.4699 8.62868 25.3147C8.53422 25.1774 8.45577 25.0634 8.46985 25C8.49985 24.865 10.9199 26.85 10.9199 26.85L11.2049 27.21C11.2959 27.4291 11.4171 27.6344 11.5649 27.82C11.7506 28.0353 11.7795 28.0439 11.9135 28.0835C11.9382 28.0908 11.9664 28.0991 11.9999 28.11C13.0511 28.794 14.0207 29.5958 14.8899 30.5C15.3002 30.9377 15.8833 31.2727 16.4777 31.6142C17.2955 32.084 18.1347 32.5661 18.5749 33.345C19.2399 34.3798 20.1262 35.2541 21.1699 35.905C21.7542 36.3874 22.3086 36.905 22.8299 37.455C23.9499 38.25 26.8399 40.78 27.5599 41.5C27.8962 41.8363 29.1119 42.7051 30.4736 43.6782C32.0269 44.7882 33.7703 46.034 34.6149 46.78C34.8126 46.9547 35.13 47.2364 35.5377 47.5984L35.5422 47.6024L35.5436 47.6036C38.408 50.1467 45.7055 56.6255 47.3498 57.78C49.0288 58.9588 52.0794 61.4735 53.3075 62.4858L53.3792 62.5449H68.4757C67.5688 61.8438 66.6505 61.1005 66.2049 60.64C64.6172 59.1604 62.8318 57.9085 60.8999 56.92C59.2749 56.165 48.1649 49.74 48.1649 49.74L47.9099 49.455C48.2699 49.525 60.4649 50.14 60.4649 50.14C61.5149 50.825 64.6149 52.195 64.6149 52.195L63.2099 50.5C63.2099 50.5 68.8299 50.645 70.8299 51.15C71.4025 51.2946 72.1063 51.4511 72.8403 51.6143C74.6699 52.021 76.6876 52.4696 77.3299 52.88C77.8579 53.2173 79.0692 54.1829 80.2135 55.095C81.0196 55.7376 81.7925 56.3537 82.2699 56.705C83.4249 57.555 85.5199 59.555 85.5199 59.555C85.1723 59.121 84.7658 58.4061 84.3172 57.6172C83.6494 56.4428 82.8884 55.1045 82.0899 54.285C80.7549 52.915 78.3049 48.66 77.5099 47C76.7149 45.34 74.2949 42.81 74.2949 42.81C74.5252 42.9319 74.9038 43.0687 75.3368 43.2253C76.2009 43.5378 77.2819 43.9287 77.8349 44.435C78.6649 45.195 82.0849 46.46 83.7499 47C84.8411 47.3539 85.2472 47.7529 85.7537 48.2506C86.0199 48.5122 86.3139 48.8011 86.7499 49.125C87.4532 49.6476 87.9107 50.2691 88.3829 50.9105C88.76 51.4228 89.1465 51.9477 89.6749 52.445C90.725 53.4333 91.3857 54.6436 92.0213 55.8078C92.106 55.9629 92.1902 56.1172 92.2749 56.27C92.9441 57.4783 95.9848 61.6284 96.6994 62.5449H97.619C97.4787 62.3101 97.372 62.1194 97.3249 62.01C97.2426 61.8192 97.0916 61.2887 96.91 60.6504C96.573 59.4659 96.1302 57.9101 95.8249 57.465C95.5377 57.0157 95.3754 56.4979 95.3549 55.965C94.346 53.3164 93.1392 50.7475 91.7449 48.28L91.6049 47.99C92.9213 48.2999 94.169 48.8508 95.2849 49.615C96.1453 50.2595 96.9529 50.9718 97.6999 51.745C98.2799 52.395 99.8299 54.49 99.8299 54.49L99.8649 52.54C99.8649 52.54 100.18 52.315 100.865 53.54C101.25 54.2283 101.777 55.3286 102.264 56.346L102.265 56.3475V56.3487C102.645 57.1409 103 57.8827 103.245 58.34C103.764 59.308 104.608 62.134 104.73 62.5449H109.765C109.845 52.2441 108.04 47.1421 107.955 46.95L107.948 46.9336C107.937 46.9101 107.924 46.8841 107.911 46.8569L107.881 46.7946C107.773 46.5761 107.649 46.3243 107.86 46.495C108.125 46.71 110.16 48.49 110.455 48.755C110.75 49.02 111.455 49.645 111.955 50.075C112.948 51.0441 113.835 52.1169 114.6 53.275C115.56 54.72 115.85 62.13 115.85 62.13C115.85 62.13 116.46 60.765 116.885 59.675C117.152 58.99 117.243 58.3406 117.298 57.9526C117.33 57.7231 117.35 57.585 117.385 57.585C117.612 57.954 117.736 58.3769 117.745 58.81C117.9 59.5461 118.109 60.2697 118.37 60.975C119.38 65.29 117.31 70.79 117.31 70.79C117.866 70.3274 118.389 69.8262 118.875 69.29C119.113 68.9844 119.284 68.6316 119.375 68.255C119.57 69.29 119.28 72.755 119.28 72.755C119.355 72.775 119.81 71.935 119.81 71.935C119.785 74.87 117.235 81.87 117.235 81.87C117.932 81.5595 118.613 80.7328 119.263 79.9434C119.514 79.6395 119.759 79.3412 120 79.08C120.518 78.5168 121.23 77.2715 121.918 76.069C122.378 75.2646 122.827 74.4791 123.2 73.93C124.13 72.56 125.245 68.93 125.63 67.365C125.714 67.0228 125.81 66.6208 125.916 66.1754C126.296 64.584 126.808 62.4383 127.39 60.485C127.836 58.9883 128.006 57.4226 127.89 55.865L128.03 55.58C128.604 56.5002 129.05 57.4944 129.355 58.535C129.484 59.1591 129.888 59.9847 130.244 60.7128C130.561 61.3612 130.841 61.9324 130.855 62.215C130.924 63.2824 131.059 64.3444 131.26 65.395C131.387 66.1733 131.444 66.9615 131.43 67.75C132.274 67.1856 132.87 65.5039 133.047 65.0028C133.066 64.949 133.081 64.9088 133.09 64.885C133.197 64.6471 133.318 64.4151 133.45 64.19C133.375 64.6151 133.505 64.9279 133.671 65.3256C133.883 65.8355 134.153 66.4851 134.125 67.69C134.075 69.835 132.73 73.19 131.84 74.19C130.95 75.19 129.025 78.19 129.025 78.19C130.122 77.6005 131.264 77.099 132.44 76.69C131.978 77.5864 131.614 78.5302 131.355 79.505C130.975 81.02 129.145 84.245 128.11 84.77C127.383 85.1654 126.698 85.6328 126.065 86.165C126.065 86.165 126.715 85.905 127.53 85.665C128.164 85.452 128.777 85.1791 129.36 84.85C129.326 85.0035 129.252 85.1451 129.145 85.26C128.975 85.425 127.94 86.46 127.435 86.99C126.93 87.52 125.585 88.575 125.585 88.575C126.466 88.2606 127.655 87.5663 128.666 86.976L128.667 86.9753L128.669 86.9744C129.28 86.6173 129.827 86.2983 130.2 86.125C130.904 85.7978 131.74 85.2657 133.349 84.2408L133.35 84.2401C134.004 83.8243 134.784 83.3272 135.735 82.73C137.952 81.2678 139.988 79.5474 141.8 77.605L142.085 77.56C142.059 77.7273 142.1 78.1221 142.153 78.6264C142.241 79.4638 142.361 80.6033 142.255 81.505C142.033 82.7756 141.698 84.0238 141.255 85.235C140.946 85.4624 140.725 85.8179 140.489 86.1989C140.174 86.7059 139.831 87.2582 139.215 87.615C138.118 88.336 137.067 89.1225 136.065 89.97C136.065 89.97 137.835 89.54 138.205 89.515C138.575 89.49 139.705 89.325 139.705 89.325C139.247 90.1046 138.464 90.629 137.771 91.0942C137.374 91.36 137.007 91.6064 136.745 91.87C136.174 92.4451 134.797 93.2876 133.893 93.841L133.892 93.8415L133.889 93.8436L133.887 93.8448C133.654 93.9875 133.452 94.1107 133.305 94.205C133.045 94.3711 132.587 94.6312 132.087 94.9147C131.203 95.4162 130.19 95.9913 129.915 96.25C129.182 96.753 128.409 97.1961 127.605 97.575C127.963 97.5264 128.324 97.5014 128.685 97.5C129.355 97.456 130.023 97.3759 130.685 97.26C129.023 98.4603 127.298 99.5686 125.515 100.58C124.746 100.856 123.957 101.074 123.155 101.23C124.575 101.88 128.765 101.355 129.46 101.065C129.758 100.941 130.759 100.635 131.968 100.266C133.58 99.7747 135.562 99.1699 136.745 98.73C138.815 97.96 141.655 96.515 141.655 96.515C141.825 96.515 140.91 98.205 140.545 98.705C139.859 99.8505 139.25 101.04 138.72 102.265C138.515 102.803 138.169 103.276 137.72 103.635C138.895 103.17 138.465 103.68 137.84 104.135C137.626 104.29 137.315 104.712 136.945 105.215C136.231 106.183 135.298 107.449 134.425 107.67C133.521 107.898 131.89 108.559 130.64 109.066H130.638C130.055 109.303 129.555 109.505 129.25 109.615C128.29 109.96 127.205 110.46 127.205 110.46C127.733 110.416 129.143 110.861 129.946 111.114L130.112 111.167C130.156 111.18 130.197 111.193 130.235 111.205C130.93 111.42 132.735 111.705 132.735 111.705C132.735 111.705 130.57 112.765 125.875 112.74C122.65 112.686 119.432 112.447 116.235 112.024V117.247C116.883 118.155 117.509 119.08 118.11 120.02C118.9 121.415 123.15 126.61 124.65 127.575C125.46 128.065 126.211 128.645 126.89 129.305C128.061 130.442 129.755 131.358 130.833 131.942C131.167 132.122 131.443 132.271 131.625 132.385C132.395 132.865 134.37 133.995 136.75 135.15C138.934 136.262 140.984 137.619 142.86 139.195C143.535 139.865 145.99 142.055 146.135 142.1ZM114.865 113.123V115.399C114.508 114.934 114.144 114.475 113.775 114.02L114.865 113.123ZM106.035 63.9249H109.743C109.731 64.4381 109.715 64.9631 109.693 65.5H106.188C106.102 64.8854 106.042 64.3201 106.035 63.9249ZM71.7149 65.5C71.1834 65.0195 70.6449 64.535 70.6449 64.535L70.8949 64.355C70.8949 64.355 70.6662 64.1897 70.307 63.9249H54.9872C55.5905 64.4576 56.2568 65.0528 56.756 65.5H71.7149ZM58.4408 66.89H73.3275C74.1579 67.6075 74.9593 68.3581 75.7299 69.14C76.4899 70.04 78.1849 72.675 78.1849 72.675L77.1399 72.1C77.5904 72.5553 78.094 72.9548 78.6399 73.29C79.3873 73.6986 80.1726 74.0335 80.9849 74.29C81.7799 74.47 85.0399 75.72 84.9049 76.54C83.8111 76.1955 82.6794 75.9856 81.5349 75.915C79.9499 75.865 69.0749 73.555 65.4199 71.2C62.7258 69.4642 59.7955 67.6985 58.4408 66.89ZM34.6948 83.6372C34.3122 83.7568 33.8854 83.8467 33.4598 83.9144V86.8168C33.8761 86.61 34.2878 86.3945 34.6948 86.1705V83.6372ZM35.9998 85.4131V83.1809C36.9 82.9776 38.7643 82.5321 39.3299 82.21C39.3299 82.21 40.0499 82.57 37.8299 84.21C37.233 84.6312 36.6226 85.0325 35.9998 85.4131ZM35.9998 96.5408C37.8595 95.9277 41.0384 94.3967 42.3099 91.49C42.2774 92.2872 42.0942 93.071 41.7699 93.8C41.4875 94.2624 41.2305 94.7398 40.9999 95.23C41.505 94.6044 42.0997 94.0568 42.7649 93.605C43.5949 93.135 45.0049 91.15 45.0049 91.15C45.0049 91.15 43.5049 94.29 43.0549 94.725L45.6549 92.63L44.0499 94.4C45.0018 94.0237 45.9772 93.7096 46.9699 93.46C46.5961 93.7162 46.2463 94.0057 45.9249 94.325C45.5648 94.725 42.7849 96.24 41.6649 96.825C40.7347 97.3108 42.0392 97.6794 42.9693 97.9422C43.1591 97.9958 43.3335 98.0451 43.4699 98.09C43.6609 98.1529 43.928 98.2986 44.2583 98.4788C45.3196 99.0578 47.0331 99.9926 48.9699 99.68L48.8649 100.02C48.8649 100.02 50.3098 99.245 50.9398 99.225C50.9398 99.225 49.5299 100.055 49.7849 100.11C50.0399 100.165 51.4099 100.055 53.4299 99.11C53.4299 99.11 53.6099 99.215 53.3199 99.435C53.0299 99.655 52.3649 100.625 52.4899 100.64C52.9625 100.445 53.4203 100.216 53.8599 99.955C53.8599 99.955 53.8099 100.265 53.9149 100.265C54.0199 100.265 55.4149 99.36 55.4149 99.36C55.1874 100.344 54.8521 101.3 54.4149 102.21C54.4149 102.21 54.0899 103.275 56.0199 101.815C55.5904 103.016 54.7946 104.051 53.7449 104.775C53.4975 104.926 53.1996 105.08 52.8603 105.257C50.9498 106.248 47.7245 107.922 44.7948 113.45C44.7948 113.45 45.0149 113.63 44.6698 113.92C44.2903 114.294 43.8443 114.594 43.3549 114.805C43.2364 114.835 43.0779 114.843 42.9008 114.852C42.4277 114.876 41.8223 114.907 41.4949 115.38C41.4949 115.38 40.7199 115.075 40.6449 114.75C40.5699 114.425 40.3598 111.14 41.2598 109.75C41.2598 109.75 40.9699 109.57 40.2149 110.33C40.0601 110.486 39.9178 110.622 39.785 110.75C39.2696 111.245 38.8974 111.602 38.4999 112.405C38.1059 113.306 37.8853 114.273 37.8498 115.255C37.8498 115.425 37.7078 115.587 37.4901 115.836C37.1943 116.174 36.7588 116.672 36.3498 117.565C36.1792 117.938 36.0657 118.333 35.9998 118.726V96.5408ZM34.6948 96.8657V143.01C34.2666 143.322 33.8545 143.655 33.4598 144.007V97.1818C33.8585 97.0327 34.2725 96.9266 34.6948 96.8657ZM35.9998 142.151C36.0635 142.113 36.1274 142.076 36.1916 142.039C38.661 140.625 41.4592 139.885 44.305 139.895C46.4327 139.887 48.541 140.3 50.5084 141.11C52.4759 141.92 54.2637 143.112 55.7689 144.616C57.2741 146.119 58.4671 147.906 59.279 149.873C60.091 151.84 60.5059 153.947 60.5 156.075C60.4721 158.941 59.7009 161.751 58.2618 164.229C57.7133 165.174 57.075 166.058 56.3579 166.871C59.2826 168.52 62.2503 170.092 65.2578 171.583C65.1958 171.438 65.1508 171.285 65.1244 171.127C65.0384 170.609 65.1589 170.079 65.4599 169.65C65.8007 169.168 65.7682 169.082 65.5718 168.561C65.5032 168.379 65.4146 168.144 65.3149 167.82C64.9299 166.57 66.4699 166.065 66.8549 166.21C67.0275 166.275 67.1951 166.364 67.3428 166.443C67.5245 166.539 67.6761 166.62 67.7699 166.62C68.5086 165.879 69.2079 165.1 69.8649 164.285C68.8243 164.379 67.7796 164.419 66.7349 164.405C66.7349 164.405 67.0499 165.585 65.3899 165.56C64.2182 165.542 64.16 165.176 64.1005 164.802C64.0757 164.646 64.0508 164.489 63.9449 164.355C63.5849 163.9 62.6349 164.095 62.3799 164.19C62.1249 164.285 61.3799 164.525 61.3799 164.525C61.7881 163.853 62.2303 163.202 62.7049 162.575C63.044 162.452 63.3995 162.379 63.7598 162.36C63.4999 161.51 64.3649 160.51 64.9399 160.51C65.2514 160.548 65.5516 160.651 65.8211 160.812C66.0905 160.973 66.3234 161.189 66.5049 161.445C66.6302 161.615 66.682 161.823 66.7319 162.023C66.8153 162.358 66.893 162.67 67.2999 162.745C68.3603 162.773 69.4214 162.725 70.4749 162.6C70.8889 162.351 71.2008 161.963 71.3547 161.505C71.5086 161.046 71.4944 160.549 71.3149 160.1C71.2039 159.839 70.8759 159.829 70.4882 159.817C70.1246 159.806 69.7086 159.793 69.3699 159.57C68.6699 159.11 68.8199 157.865 69.6099 157.645C70.3391 157.442 70.31 157.107 70.2855 156.824C70.2834 156.801 70.2814 156.778 70.2799 156.755C70.264 156.522 69.9294 156.282 69.6689 156.096C69.5999 156.046 69.5361 156.001 69.4849 155.96C69.2134 155.84 68.9137 155.798 68.6199 155.84C70.6199 154.515 71.4849 156.395 71.4849 156.395C71.78 156.335 72.0855 156.353 72.3719 156.445C72.6583 156.538 72.9159 156.703 73.1199 156.925C73.3599 157.305 73.2349 158.075 72.7349 158.655C72.658 158.734 72.6021 158.831 72.572 158.937C72.5418 159.043 72.5385 159.155 72.5623 159.262C72.5861 159.37 72.6363 159.47 72.7083 159.553C72.7803 159.637 72.8719 159.701 72.9749 159.74C73.0599 159.75 73.3579 159.383 73.7145 158.944C74.0704 158.506 74.4853 157.995 74.8049 157.715C75.4449 157.155 78.3949 156.31 78.9449 156.215C79.4949 156.12 79.5199 155.925 79.5199 155.925L78.7249 155.83C81.5753 154.592 83.2185 151.241 83.755 150.146L83.7999 150.055C84.2849 149.07 85.0299 146.785 85.0299 146.785C81.4873 147.199 79.7672 146.455 79.3577 146.278L79.3463 146.273C79.3302 146.266 79.3164 146.26 79.3049 146.255C79.0149 146.135 79.4949 145.99 79.8349 145.94C80.2647 145.749 80.6613 145.491 81.0099 145.175L79.5449 145.245C79.5449 145.245 79.2299 144.805 77.4499 144.545C75.6699 144.285 75.1149 143.635 75.1149 143.635L76.8949 143.37C76.4918 143.211 76.0444 142.978 75.5926 142.742C74.7215 142.287 73.8337 141.824 73.2149 141.87C72.5489 141.913 71.8808 141.913 71.2149 141.87C71.1419 143.386 71.9293 144.121 72.4643 144.621C72.6261 144.772 72.7651 144.902 72.8499 145.025C73.2149 145.555 72.7099 146.37 72.3499 146.345C71.9992 146.384 71.6596 146.491 71.3499 146.66C71.3499 146.66 71.5899 147.91 70.0749 148.56C68.5599 149.21 67.9549 148.92 67.9549 148.92C68.3919 148.306 68.7862 147.663 69.1349 146.995C69.3653 146.502 69.0651 146.296 68.7301 146.066C68.5417 145.937 68.3422 145.8 68.2199 145.6C68.128 145.452 68.07 145.285 68.0498 145.112C68.0297 144.939 68.048 144.764 68.1033 144.599C68.1587 144.434 68.2499 144.283 68.3702 144.157C68.4906 144.031 68.6373 143.933 68.7999 143.87C69.5123 143.648 69.3986 143.366 69.1123 142.656L69.1117 142.654C69.0887 142.597 69.0647 142.538 69.0399 142.475C68.8404 141.972 68.9281 141.428 68.9916 141.034C69.0348 140.767 69.0667 140.569 68.9899 140.5C68.7999 140.33 68.3399 140.715 68.3399 140.715C68.2099 140.92 67.3148 141.06 66.4943 141.188C65.9573 141.272 65.4522 141.351 65.2149 141.44C64.7366 141.619 64.7635 141.783 64.8396 142.247C64.859 142.365 64.8816 142.503 64.8999 142.665C64.9701 143.289 64.413 143.524 63.856 143.758C63.6993 143.824 63.5426 143.89 63.3999 143.965C62.7654 144.297 62.3406 143.871 61.9626 143.493L61.9349 143.465C61.8034 143.334 61.7419 143.162 61.6834 143C61.5708 142.686 61.4695 142.405 60.8999 142.5C60.0349 142.645 58.8049 144.185 58.8049 144.185L58.6149 144.475C57.3649 142.07 60.3199 140.31 60.3199 140.31C60.2749 140.02 60.1999 138.62 61.4999 138.31C62.7999 138 63.0149 138.655 63.1348 139.155C63.153 139.247 63.1919 139.333 63.2486 139.407C63.3052 139.481 63.3781 139.541 63.4617 139.583C63.5452 139.624 63.6372 139.646 63.7305 139.646C63.8238 139.647 63.9159 139.626 63.9999 139.585C64.1149 139.534 64.3588 139.505 64.6531 139.469C65.0496 139.421 65.5374 139.363 65.9249 139.225C66.5999 138.985 67.9698 138.215 66.2149 138.025C65.6306 137.978 65.0744 137.754 64.6192 137.385C64.1641 137.016 63.8314 136.517 63.6649 135.955C63.3749 135.26 62.9699 135.76 62.9699 135.76C62.9699 135.76 62.9249 136.6 61.4299 136C60.4427 135.604 60.4714 135.33 60.517 134.894C60.5405 134.67 60.5685 134.403 60.4649 134.055C60.1599 133.03 58.9499 133.295 58.6599 133.555C58.3861 133.771 58.0786 133.94 57.7499 134.055C57.7895 133.701 57.9021 133.36 58.0804 133.051C58.2588 132.743 58.4991 132.476 58.7862 132.265C59.0733 132.055 59.4009 131.906 59.7484 131.829C60.0958 131.751 60.4555 131.746 60.8049 131.815C62.4649 128.76 63.7899 131.51 64.2449 132.925C64.5658 133.923 65.5486 134.421 66.2752 134.79C66.5787 134.943 66.8376 135.074 66.9849 135.21C67.4078 135.567 67.8502 135.901 68.3099 136.21C67.4862 135.248 67.2895 134.347 67.131 133.621C67.0722 133.351 67.0184 133.105 66.9399 132.89C66.7948 132.492 66.561 132.377 66.3027 132.251C66.0447 132.124 65.7623 131.985 65.5199 131.54C65.0365 130.653 65.8742 129.796 66.0927 129.572L66.0949 129.57C66.3099 129.35 66.9849 129.595 66.9849 129.595C66.9399 127.885 65.1099 126.275 65.1099 126.275C66.0489 126.217 66.9781 126.494 67.7317 127.057C68.4854 127.62 69.0145 128.433 69.2249 129.35C71.3349 129.93 70.9299 131.395 70.8349 131.66C70.7399 131.925 69.9449 131.925 69.9449 131.925C68.8649 132.745 69.9949 134.765 71.1249 135.56C72.2549 136.355 76.4649 138.135 76.4649 138.135L76.0299 138.46C76.3148 138.519 76.6041 138.554 76.8949 138.565C77.0952 138.565 77.2835 138.696 77.4962 138.844C77.6709 138.966 77.8621 139.099 78.0899 139.18C78.3212 139.262 78.9388 139.186 79.582 139.107C80.3426 139.014 81.1392 138.916 81.3749 139.07C81.673 139.258 82.0011 139.393 82.3449 139.47C81.1004 138.036 80.1336 135.374 79.4504 133.492C79.3238 133.144 79.2069 132.822 79.0999 132.54C78.8948 132.035 78.8077 131.489 78.8449 130.945C78.8822 130.401 79.0429 129.873 79.3149 129.4C77.9964 128.549 76.8968 127.4 76.1049 126.045C75.7089 125.206 75.4183 124.321 75.2399 123.41C76.253 123.413 77.2621 123.281 78.2399 123.015C78.0199 122.965 77.6099 122.85 76.8749 122.615C75.7663 122.264 74.431 121.565 73.0092 120.82C71.6542 120.11 70.2206 119.359 68.8299 118.83C65.9799 117.745 65.4349 117.135 65.2899 116.915C65.1962 116.783 65.0543 116.693 64.8949 116.665C64.8684 116.902 64.7521 117.121 64.5699 117.275C64.4899 117.337 64.3442 117.483 64.1577 117.671C63.6793 118.153 62.932 118.906 62.3349 119.19C61.5048 119.585 57.6049 121.82 56.5599 122.76C56.2898 123.003 55.9472 123.347 55.5722 123.724C54.4961 124.805 53.1522 126.155 52.4849 126.155C52.2472 126.173 52.009 126.129 51.7934 126.027C51.5779 125.925 51.3923 125.77 51.2549 125.575C52.713 124.612 53.4792 123.089 53.9386 122.177C54.0132 122.028 54.0798 121.896 54.1399 121.785L56.4149 117.635C52.0849 118.54 46.8199 128.025 45.8799 130.59C44.9399 133.155 43.0299 133.91 40.0699 133.19C39.2152 133.028 38.4549 132.545 37.9446 131.84C37.4343 131.136 37.2126 130.263 37.3249 129.4C37.3649 128.97 37.5448 128.93 37.5448 128.93C41.6369 132.632 44.2236 127.746 46.2366 123.944C46.8334 122.817 47.3797 121.785 47.8999 121.1C50.1749 118.105 54.9699 116.665 54.9699 116.665C54.3509 116.627 53.7358 116.542 53.1299 116.41C52.4087 116.25 51.7705 116.27 50.6399 116.305C50.2499 116.317 49.8005 116.331 49.2699 116.34C47.1999 116.375 45.6999 119.62 45.6999 119.62C44.9749 119.445 43.7849 119.33 43.2799 119.945C43.171 120.078 43.0554 120.227 42.9352 120.382C42.4981 120.947 42.0008 121.589 41.5499 121.785C40.8087 122.192 40.1479 122.731 39.5998 123.375C39.2398 123.845 37.3999 125.61 37.3999 125.61C36.7149 124.535 36.4949 121.535 36.4949 121.535C36.2721 121.353 36.0936 120.949 35.9998 120.432V142.151ZM65.9725 171.936C68.6674 173.258 71.3939 174.517 74.1498 175.71C94.3948 166.76 103.695 159.765 107.935 155.465C109.132 154.251 110.001 153.181 110.633 152.263C110.345 151.26 110.157 150.242 110.035 149.275C109.826 147.618 109.515 146.172 109.295 145.149C109.152 144.48 109.047 143.992 109.035 143.745C108.971 142.18 108.681 140.632 108.175 139.15C107.783 138.225 107.642 137.212 107.765 136.215C105.465 137.755 104.465 137.105 104.465 137.105L104.325 144.605C104.104 144.596 103.89 144.529 103.704 144.41C103.518 144.292 103.366 144.126 103.265 143.93C102.93 143.26 102.805 143.04 102.805 143.04C102.882 143.599 102.569 144.9 102.335 145.874C102.266 146.162 102.203 146.422 102.16 146.625C101.961 147.236 101.552 147.758 101.005 148.095L100.69 147.805C100.69 147.805 101.025 148.91 100.47 149.27C99.9706 149.742 99.5562 150.297 99.2449 150.91L99.2199 148.6C98.9849 150.065 96.2199 152.855 96.2199 152.855L95.9799 151.175C95.9799 151.175 95.5899 151.755 95.3749 151.8C95.1599 151.845 94.8749 152.52 94.8749 152.52L94.7049 150.835L93.2599 151.8C93.0949 151.15 93.4999 148.865 93.4999 148.865C91.9999 149.5 90.3149 152.435 90.3149 152.435L89.8799 151.3C89.7204 152.306 88.2599 154.967 87.5226 156.311C87.3583 156.61 87.23 156.844 87.1599 156.98C86.9936 157.302 86.9607 157.754 86.927 158.216C86.8827 158.825 86.8371 159.451 86.4849 159.82C85.8649 160.47 83.3848 162.605 83.2399 162.535C83.0949 162.465 83.3349 161.36 83.3349 161.36C82.9228 162.05 82.3613 162.64 81.6916 163.084C81.0218 163.529 80.2609 163.818 79.4649 163.93L79.3699 162.875C77.9699 161.31 76.2598 163.62 76.2149 163.765C76.1875 164.069 76.1875 164.376 76.2149 164.68C79.7249 166.795 77.3899 167.845 77.0799 167.61C76.7699 167.375 76.6749 167.61 76.6749 167.61C76.7433 167.986 76.7348 168.372 76.6499 168.745C75.1499 171.055 73.6499 170.5 73.6499 170.5C74.3238 169.81 74.7298 168.902 74.7949 167.94C74.3322 167.88 73.8882 167.721 73.4935 167.472C73.0989 167.223 72.7632 166.892 72.5099 166.5C72.2319 166.01 72.7051 165.688 73.1192 165.406C73.1744 165.368 73.2286 165.332 73.2799 165.295C73.4109 165.187 73.5158 165.051 73.5868 164.897C73.6578 164.743 73.6931 164.575 73.6899 164.405C69.8873 166.112 69.8785 167.319 69.8675 168.811L69.8662 168.961L69.8655 169.023L69.8649 169.07C69.8401 170.67 68.6322 170.351 68.2599 170.253L68.2499 170.25C68.0221 170.184 67.8153 170.06 67.6499 169.89C67.2649 169.695 66.1099 171.335 66.0399 171.575C66.0135 171.695 65.9911 171.815 65.9725 171.936ZM111.192 153.867C110.668 154.548 110.036 155.286 109.275 156.08C103.05 162.58 91.3548 169.645 74.4998 177.08L74.3698 177.135H73.9998L73.8448 177.08C66.7521 173.946 60.5886 170.89 55.3542 167.913C55.0111 168.239 54.6539 168.551 54.2835 168.847C59.4586 171.825 65.9693 175.147 74.1548 178.77C95.7798 169.205 105.725 161.73 110.225 157.14C110.87 156.484 111.427 155.868 111.905 155.292C111.635 154.836 111.398 154.358 111.192 153.867ZM54.6984 167.537C54.7524 167.568 54.8065 167.599 54.8607 167.631C54.6272 167.851 54.405 168.082 54.195 168.325C54.0886 168.42 53.9831 168.516 53.8784 168.613C53.7217 168.522 53.5662 168.431 53.412 168.341C53.6494 168.138 53.9126 167.966 54.195 167.83C54.366 167.738 54.5338 167.64 54.6984 167.537ZM54.1812 167.238C54.183 167.239 54.1848 167.24 54.1867 167.241L53.1609 168.194L53.0304 168.117C53.4832 167.787 53.9002 167.473 54.1812 167.238ZM55.3311 166.287C55.866 165.745 56.54 164.98 56.54 164.98C56.2738 165.362 55.9867 165.73 55.68 166.08L55.695 166.07C55.6371 166.119 55.5182 166.212 55.3838 166.317C55.3662 166.307 55.3487 166.297 55.3311 166.287ZM55.8797 166.6C55.879 166.599 55.8782 166.599 55.8775 166.599L56.87 165.08L57.03 164.93C57.03 164.93 56.585 165.825 56.5 165.915L56.53 165.905C56.4653 165.984 55.9567 166.519 55.8797 166.6ZM54.2718 165.676C54.2595 165.669 54.2472 165.662 54.2348 165.655C54.3889 165.488 54.5268 165.337 54.64 165.21C54.64 165.21 54.4957 165.394 54.2718 165.676ZM53.2587 166.695C53.3032 166.722 53.3478 166.748 53.3925 166.775C53.0991 167.137 52.7952 167.508 52.5308 167.821L52.3096 167.689C52.5919 167.396 52.9253 167.047 53.2587 166.695ZM106.405 66.89H109.618C109.569 67.5382 109.474 68.731 109.4 69.27C109.222 70.2613 109.114 71.2637 109.075 72.27L108.535 71.475C108.514 71.7679 108.4 72.0465 108.21 72.27C107.9 72.6804 107.645 73.1291 107.45 73.605C107.45 73.605 106.98 69.67 106.835 69.105C106.77 68.8517 106.582 67.9264 106.405 66.89ZM105.305 63.9249H105.786L105.575 64.185L105.355 64.15C105.355 64.15 105.337 64.0611 105.305 63.9249ZM98.0387 63.9249H98.4877C98.9041 64.5675 99.2699 65.115 99.2699 65.115C99.2699 65.115 98.6576 64.5291 98.0387 63.9249ZM33.4598 95.7678V94.8249C33.6063 94.6919 33.6849 94.5953 33.6849 94.545C33.6849 94.545 33.9749 94.545 33.6149 95.41C33.5657 95.528 33.5133 95.648 33.4598 95.7678ZM53.3498 109.845C53.3498 109.845 54.1449 108.88 53.9999 108.085C53.9999 108.085 53.8749 106.545 52.5648 106.955C52.5648 106.955 54.4848 107.75 53.0648 109.845H53.3498ZM51.5699 108.35C51.3406 108.262 51.0918 108.238 50.8498 108.28H50.8449C50.8449 108.28 49.1898 109.31 49.1898 109.48C49.1898 109.65 49.5998 110.085 50.3699 110.035C50.6623 109.979 50.938 109.857 51.1756 109.677C51.4132 109.498 51.6062 109.266 51.7399 109C51.7399 108.989 51.7405 108.974 51.7412 108.956C51.7468 108.814 51.76 108.478 51.5699 108.35ZM50.1698 111.94C45.9348 113.29 47.2149 111 47.2149 111C47.2149 111 46.4399 111.625 46.8999 112.135C47.7249 113.085 50.1698 111.94 50.1698 111.94ZM59.4155 108.486C59.6578 108.165 59.8601 107.897 59.9149 107.78V107.8C60.2404 107.096 60.3076 106.299 60.1049 105.55C59.6566 105.185 59.1644 104.878 58.6399 104.635C58.2745 104.558 57.8963 104.566 57.5349 104.66C57.3148 104.755 53.8499 106.08 53.6849 106.13C53.6849 106.13 54.7399 106.66 54.5749 108.415C54.5749 108.415 54.8148 108.44 54.7649 108.655C54.7619 108.668 54.7597 108.683 54.7578 108.7C54.7559 108.718 54.7543 108.737 54.7525 108.759C54.7253 109.093 54.6541 109.965 52.9149 111.325C50.9449 112.865 49.9449 113.465 48.9449 113.465C48.4407 113.495 47.9367 113.404 47.4748 113.2C47.2111 113.186 46.9512 113.13 46.7049 113.035C46.2506 113.329 45.8239 113.664 45.4299 114.035C45.4444 114.319 45.5194 114.597 45.6499 114.85C45.7449 114.97 47.0449 115.21 48.4149 114.85C48.9517 114.709 49.877 114.313 51.0021 113.832C52.7483 113.084 54.976 112.131 56.9799 111.605C56.9799 111.605 58.1599 110.67 58.3749 110.065C58.5087 109.688 59.0163 109.016 59.4155 108.486ZM46.58 150.23L44.26 146.675L41.935 150.23L44.26 153.78L46.58 150.23ZM39.06 146.675L30.425 159.88H35.075L41.385 150.23L39.06 146.675ZM35.465 167.31L35.7 167.38L34.965 166.81L35.465 167.31ZM35.8628 168.388C36.0144 168.499 36.1807 168.62 36.37 168.745V168.76C37.1643 169.275 38.0127 169.701 38.9 170.03C38.9 170.03 37.53 169.2 37.335 169.03C37.14 168.86 36.345 168.22 36.06 167.995C35.924 167.888 35.7425 167.808 35.5773 167.735C35.3964 167.655 35.2351 167.584 35.175 167.495C35.06 167.325 34.44 166.67 34.44 166.67L34.31 166.455L34.745 166.69C34.745 166.69 34.28 166.355 34.135 166.275L33.32 165.845C33.32 165.845 34.195 166.875 34.5 167.21C34.7519 167.527 35.0444 167.809 35.37 168.05C35.5223 168.14 35.682 168.256 35.8628 168.388ZM39.07 169.9V169.755C39.07 169.755 38.605 169.435 38.41 169.29C38.215 169.145 37.545 168.6 37.35 168.44C37.155 168.28 36.115 167.635 36.115 167.635L37.165 168.475C37.2332 168.53 37.3313 168.607 37.4423 168.695C37.7135 168.907 38.0611 169.18 38.235 169.34C38.4966 169.551 38.776 169.738 39.07 169.9ZM41.66 150.65L35.625 159.87L40.285 159.88L44 154.2L41.66 150.65ZM40.82 159.87H47.695L44.26 154.61L40.82 159.87ZM44.535 154.2L48.26 159.87L52.895 159.88L46.86 150.65L44.535 154.2ZM47.15 150.22L53.46 159.87H58.105L49.47 146.665L47.15 150.22ZM57.15 164.65C57.15 164.65 57.56 164.065 57.65 163.905L57.635 163.93C57.72 163.775 58.23 162.355 58.23 162.355C58.23 162.355 57.55 163.735 57.465 163.885C57.38 164.035 57.095 164.57 57.095 164.57L57.15 164.65ZM58.925 160.675L58.425 162.06L58.76 161.245L58.925 160.675Z" fill="#D29E26"/>
<path d="M43.3101 171.985C43.6215 171.872 43.8998 171.683 44.1201 171.435L46.7951 171.485C46.7951 171.485 44.2801 171.985 44.0701 171.985H43.3101Z" fill="#D29E26"/>
<path d="M49.7252 170.325L49.1652 170.62L49.1152 170.745L49.2452 170.735L49.7252 170.325Z" fill="#D29E26"/>
<path d="M48.97 170.825C48.87 170.825 48.94 170.69 48.94 170.69L48.575 170.875L48.46 171.03L48.34 171.13C48.34 171.13 48.205 171.315 48.275 171.315C48.4749 171.245 48.6703 171.164 48.86 171.07C48.9577 170.995 49.0496 170.913 49.135 170.825H48.97Z" fill="#D29E26"/>
<path d="M42.5951 171.375L42.4701 171.47L41.8501 171.5L41.7301 171.38L41.6351 171.47C41.3027 171.499 40.9689 171.511 40.6351 171.505C40.5301 171.475 39.5151 171.125 39.5151 171.125C39.5151 171.125 40.7151 171.055 40.7651 171.075L40.8401 171.115L40.7751 171.33L41.0101 171.095H41.5901C41.6959 171.13 41.7994 171.172 41.9001 171.22L42.5951 171.375Z" fill="#D29E26"/>
</svg>