<svg xmlns:xlink="http://www.w3.org/1999/xlink" xmlns="http://www.w3.org/2000/svg" width="431" height="233" viewBox="0 0 431 233" fill="none">
<g opacity="0.3">
<path d="M191.055 88.5798H226.225L191.055 140.83H226.235L188.115 197.465H152.93L188.1 145.215H152.925L188.09 92.9648H152.925L191.04 36.3298H226.225L191.055 88.5798Z" fill="#5A86A3"/>
<path d="M299.54 92.9648H264.375L299.54 145.215H264.365L299.535 197.465H264.35L226.235 140.83H261.41L226.24 88.5798H261.41L226.24 36.3298H261.425L299.54 92.9648Z" fill="#5A86A3"/>
</g>
<path d="M92.0601 132.9C92.4437 132.755 92.7868 132.52 93.0601 132.215L96.4051 132.245C96.4051 132.245 93.2601 132.9 93.0001 132.9H92.0601Z" fill="#5A86A3"/>
<path d="M100.07 130.82L99.3701 131.19L99.3101 131.35L99.4701 131.335L100.07 130.82Z" fill="#5A86A3"/>
<path d="M99.1199 131.445C98.9999 131.445 99.0899 131.275 99.0899 131.275L98.6299 131.51L98.4849 131.705L98.3349 131.825C98.3349 131.825 98.1649 132.06 98.2499 132.06C98.5025 131.973 98.7497 131.872 98.9899 131.755C99.112 131.66 99.2273 131.556 99.3349 131.445H99.1199Z" fill="#5A86A3"/>
<path d="M91.1548 132.135L90.9948 132.255L90.2198 132.305L90.0748 132.16L89.9498 132.27C89.9498 132.27 88.8548 132.355 88.7198 132.32C88.5848 132.285 87.3198 131.82 87.3198 131.82C87.3198 131.82 88.8198 131.735 88.8798 131.76L88.9798 131.805L88.8948 132.08L89.1898 131.785C89.1898 131.785 89.8398 131.76 89.9148 131.785C89.9898 131.81 90.3048 131.945 90.3048 131.945L91.1548 132.135Z" fill="#5A86A3"/>
<path fill-rule="evenodd" clip-rule="evenodd" d="M150.275 121.305C150.214 119.781 149.995 119.082 149.804 118.472C149.682 118.081 149.571 117.726 149.52 117.215C149.144 114.796 148.334 112.466 147.13 110.335C146.18 108.803 145.242 107.815 144.486 107.018C144.176 106.691 143.897 106.396 143.66 106.11C142.845 105.125 139.565 103.26 137.795 102.315C137.023 101.903 135.89 101.631 134.645 101.484V97.0228L134.864 96.9421L135.047 96.8742L135.167 96.8298L135.22 96.8099C135.834 96.6945 136.422 96.4728 136.96 96.1549C137.515 95.7299 138.99 94.5799 139.315 94.3199C139.64 94.0599 141.475 90.1299 142.065 88.0299C142.655 85.9299 142.675 79.0949 140 74.4999C139.017 72.7309 137.597 71.2435 135.875 70.1799C135.875 70.1799 135.272 69.6783 134.645 69.2115V69.2H134.629C134.474 69.0849 134.318 68.9721 134.17 68.8699C133.351 68.3564 132.471 67.9482 131.55 67.6549C130.865 67.4249 129.52 66.9049 129.16 66.7399C128.943 66.6405 128.596 66.5539 128.203 66.4559C127.944 66.3911 127.664 66.3214 127.39 66.2399C126.7 66.0349 121.465 65.9749 119.39 66.6949C117.973 67.1865 116.994 67.4054 116.317 67.5569C116.003 67.6272 115.753 67.683 115.555 67.7449C114.506 68.073 113.479 68.4671 112.48 68.9249C112.313 69.0192 112.145 69.1109 111.975 69.2H100.492C99.8086 68.5929 99.1507 67.7035 98.6399 66.4099C97.1649 62.6749 100.44 60.3499 101.39 60.0549C102.698 59.5704 103.979 59.0129 105.225 58.3849C106.406 57.608 107.443 56.6318 108.29 55.4999C108.543 55.116 108.886 54.8001 109.29 54.5799C109.945 54.2199 111.91 51.4699 111.355 48.0349C111.039 46.08 110.712 45.5 110.44 45.0175C110.234 44.6522 110.059 44.3428 109.945 43.5349C109.693 42.8289 109.377 42.1477 109 41.4999C108.34 40.327 107.761 39.1109 107.265 37.8599C106.875 36.8599 106.22 35.1099 106.12 34.6849C106.02 34.2599 105.695 33.7999 104.35 33.7699C103.005 33.7399 102.745 34.1299 102.225 35.8649C102.011 36.5785 101.956 37.0596 101.909 37.4764C101.841 38.0729 101.788 38.5378 101.305 39.3649C100.918 40.028 100.429 41.042 99.9496 42.0383C99.4128 43.1528 98.8865 44.2455 98.5249 44.7999C98.5249 44.7999 98.3899 45.7999 97.9999 46.1449C97.6099 46.4899 97.3099 49.2549 97.3099 49.2549C97.4284 49.3903 97.5162 49.5499 97.5671 49.7225C97.618 49.8951 97.6309 50.0768 97.6049 50.2549C97.7542 50.4812 97.9214 50.6952 98.1049 50.8949C98.2798 51.0974 98.4463 51.2735 98.5882 51.4236C98.7544 51.5994 98.887 51.7397 98.9599 51.8449C99.1594 52.0526 99.3845 52.234 99.6299 52.3849C99.6299 52.3849 99.6949 52.7799 98.8599 52.9749C98.2592 53.1206 97.6808 53.3459 97.1399 53.6449C95.8299 54.3782 94.5675 55.1931 93.3599 56.0849C93.1329 56.2869 93.0038 56.4239 92.8936 56.541C92.7609 56.6819 92.6556 56.7938 92.4399 56.9549C91.9539 57.444 91.526 57.9876 91.1649 58.5749C90.9999 58.8349 89.1349 62.3399 88.9549 63.4549C88.7888 64.9286 88.7888 66.4162 88.9549 67.8899L88.9799 68.0011C89.0387 68.2642 89.1365 68.7007 89.2705 69.2H70.9097V82.5361C68.3762 84.2153 65.4709 86.613 63.1849 89.5099C63.1849 89.5099 61.3499 92.3899 60.1849 93.3749C60.1849 93.3749 56.5849 99.2999 55.7949 101.17C55.0049 103.04 54.5199 107.39 54.4549 109.815C54.4456 111.736 54.6774 113.651 55.1449 115.515L55.1765 115.643C55.4694 116.831 56.9417 122.804 58.3499 125.515C59.0171 126.799 59.3784 127.789 59.6553 128.548C59.9886 129.461 60.1997 130.04 60.6749 130.395C60.782 130.474 61.2575 131.212 61.5467 131.66L61.5473 131.661C61.6223 131.777 61.6847 131.874 61.7249 131.935C61.8112 132.066 62.0586 132.287 62.3325 132.531C62.6769 132.839 63.0633 133.184 63.2249 133.435C63.883 134.416 64.6776 135.298 65.5849 136.055L65.6408 136.094L65.9992 136.346L66.0012 136.348C67.0902 137.112 69.0628 138.496 69.3199 138.84C69.9257 139.468 70.6342 139.989 71.4149 140.38C72.1413 140.77 72.8411 141.208 73.5099 141.69C73.7164 141.826 75.6323 142.769 77.8158 143.769C80.5718 145.976 84.0677 148.255 88.286 150.597C87.9104 150.728 87.5731 150.863 87.2949 151C86.4887 151.397 85.7653 151.722 85.1185 152.012C84.1365 152.452 83.331 152.814 82.6799 153.23C81.8777 153.742 79.575 155.824 78.0131 157.237L78.01 157.239L78.005 157.244L78.0037 157.245L78.0003 157.248C77.4652 157.732 77.0178 158.136 76.7499 158.37C75.6999 159.285 74.7899 161.45 74.5898 162.105C74.5338 162.289 74.4191 162.578 74.2864 162.912L74.2859 162.913C73.9452 163.772 73.4856 164.93 73.5898 165.38C73.7161 165.924 74.5397 164.353 74.8597 163.743L74.8601 163.742C74.9074 163.652 74.9436 163.583 74.9648 163.545C75.0043 163.474 75.066 163.323 75.1461 163.127C75.4009 162.504 75.8414 161.425 76.3398 161.045C76.9656 160.469 77.5567 159.856 78.1099 159.21C79.3352 157.99 80.7503 156.977 82.2999 156.21C82.956 155.9 83.4899 155.605 83.9948 155.327C85.202 154.66 86.2428 154.085 88.3899 153.62C89.0769 153.356 89.7913 153.17 90.5199 153.065C90.8151 153.065 91.1932 153.035 91.5892 153.005C91.9623 152.975 92.3519 152.945 92.7027 152.937C95.6924 154.454 98.9729 155.994 102.54 157.555L102.64 157.6H102.92L103.02 157.555C104.54 156.889 106.009 156.227 107.425 155.57C108.16 155.5 108.821 155.445 109.155 155.445C109.949 155.475 110.743 155.386 111.51 155.18C113.142 154.811 114.75 154.342 116.325 153.775C117.311 153.383 118.047 153.157 118.72 152.951C119.564 152.693 120.309 152.465 121.325 151.975C122.173 151.566 123.087 151.148 123.847 150.8C124.722 150.399 125.392 150.093 125.515 150.005C125.579 149.959 125.811 149.779 126.127 149.534L126.129 149.532C126.941 148.902 128.307 147.843 128.825 147.505C129.354 147.159 130.945 145.852 131.894 145.072C132.236 144.791 132.494 144.579 132.59 144.505C132.677 144.437 132.838 144.292 133.049 144.101C133.707 143.507 134.857 142.469 135.8 141.95C136.605 141.507 138.161 140.185 139.383 139.147C140.052 138.579 140.62 138.097 140.91 137.89C143.11 136.024 145.067 133.889 146.735 131.535C146.735 131.535 148.145 128.65 148.635 127.9C149.007 127.224 149.273 126.496 149.425 125.74C150.036 124.347 150.326 122.835 150.275 121.315V121.305ZM135.665 112.71C135.333 112.539 134.992 112.386 134.645 112.253V133.203C135.46 132.06 136.152 130.832 136.71 129.54C136.812 129.191 137.16 128.544 137.537 127.842C138.009 126.964 138.528 125.998 138.675 125.415C138.94 124.365 139.53 122.11 139.53 122.11C139.836 120.9 139.656 120.407 139.478 119.921C139.371 119.629 139.265 119.34 139.265 118.9C139.184 117.498 138.643 116.162 137.725 115.1C137.365 114.723 137.047 114.296 136.754 113.903C136.356 113.368 136.005 112.897 135.665 112.71ZM133.56 134.485V111.903C133.278 111.829 132.993 111.767 132.705 111.717V133.5C132.728 133.73 132.745 134.53 132.078 135.859C132.57 135.513 132.981 135.168 133.561 134.589C133.563 134.532 133.56 134.498 133.56 134.488V134.485ZM133.56 97.4188V101.387C133.276 101.37 132.99 101.358 132.705 101.352V97.7261C133.008 97.6178 133.295 97.5144 133.56 97.4188ZM129.795 101.495C130.378 101.42 131.018 101.372 131.68 101.355V98.089C130.566 98.4798 129.348 98.8945 128.28 99.2299C125.955 99.8969 123.499 99.9656 121.14 99.4299C119.73 99.1449 116.585 98.6449 116.585 98.6449C114.368 98.2608 112.162 96.8115 110.957 96.0201C110.516 95.7299 110.208 95.5281 110.085 95.4999C109.87 95.4509 109.407 95.1454 108.9 94.8114C108.32 94.4291 107.684 94.0096 107.3 93.8949C106.927 93.7837 106.661 93.5841 106.354 93.3545C106.067 93.1401 105.745 92.8995 105.27 92.6799C104.977 92.5446 104.673 92.3625 104.304 92.1415C103.433 91.6192 102.2 90.8801 99.8949 90.0299C97.5786 89.2305 95.1685 88.7347 92.7249 88.5549C92.6698 88.55 92.6058 88.5446 92.5345 88.5387C92.0935 88.5017 91.3699 88.441 90.7249 88.3249C90.1962 88.2593 89.6597 88.3053 89.1499 88.4599C84.3982 89.4855 79.8791 92.0354 78.7079 92.6963C78.5715 92.7732 78.4805 92.8245 78.4399 92.8449C78.2376 92.946 77.7263 93.4181 77.2396 93.8674C76.7878 94.2845 76.3568 94.6823 76.2148 94.7449C75.9199 94.8749 75.3299 95.1699 75.3299 95.1699C74.8156 95.6252 74.3402 96.1542 73.89 96.7154V106.964C74.3394 105.536 74.9477 104.155 75.7073 102.85C77.4967 99.7761 80.0633 97.2268 83.1495 95.4583C86.2357 93.6898 89.7328 92.7643 93.2898 92.7748C95.9499 92.7643 98.5859 93.28 101.046 94.2924C103.506 95.3047 105.741 96.7937 107.623 98.6735C109.506 100.553 110.997 102.787 112.013 105.246C113.028 107.704 113.547 110.34 113.54 113C113.507 116.587 112.543 120.105 110.742 123.208C108.94 126.311 106.364 128.892 103.265 130.7C104.017 129.871 104.813 129.083 105.65 128.34C105.935 128.008 106.239 127.693 106.56 127.395L107.42 126.535C107.42 126.535 105.945 127.68 105.65 127.715C105.229 127.917 104.841 128.182 104.5 128.5L102.77 129.66L105.77 126.865C105.83 126.817 105.886 126.765 105.94 126.71L105.77 126.865C104.68 127.83 101.06 130.28 101.06 130.28C101.06 130.28 102.11 129.195 102.73 128.64C103.35 128.085 106.2 124.45 106.2 124.45C105.25 125.5 102.95 127.89 102.435 128.415C101.92 128.94 99.6498 131 99.2598 131.065C98.8036 131.195 98.3588 131.362 97.9298 131.565L99.5198 129.71L97.7198 130.005C97.3162 130.272 96.8895 130.503 96.4448 130.695C96.0898 130.77 94.9448 131.195 94.9448 131.195L93.0148 131.165C92.8676 130.986 92.7464 130.787 92.6548 130.575L91.6048 130.31L90.9148 130.87L89.9148 130.215L90.0798 130.935C89.7336 130.639 89.3602 130.376 88.9648 130.15C88.3154 129.718 87.6926 129.247 87.0998 128.74L86.0198 128.02C86.2251 128.279 86.3934 128.565 86.5198 128.87C86.6332 129.215 87.3445 129.83 87.8727 130.286C87.9498 130.353 88.0229 130.416 88.0898 130.475C88.6148 130.935 89.2698 131.395 89.2698 131.395L89.2048 131.525L88.7798 131.555C88.4077 131.426 87.8179 131.345 87.2575 131.268C86.6882 131.19 86.1492 131.116 85.8998 131C85.7154 130.914 85.2589 130.733 84.7282 130.523C83.8344 130.169 82.73 129.732 82.3598 129.525C81.7591 129.123 81.1907 128.675 80.6598 128.185C80.6598 128.185 81.4448 128.675 82.5598 129.265C83.5282 129.725 84.5313 130.107 85.5598 130.41C82.2848 129.165 78.9148 126.415 78.4898 126.055C78.0648 125.695 77.2748 124.94 76.8498 124.485C76.6598 124.28 76.1298 123.7 75.6298 123.115C74.906 121.849 74.324 120.515 73.89 119.135V126.772C74.8054 127.852 75.8666 129.085 76.1799 129.31C76.4586 129.51 77.2127 130.18 77.9017 130.793C78.5719 131.389 79.1805 131.93 79.2299 131.93C79.8528 132.157 80.4289 132.496 80.9299 132.93C81.6539 133.472 82.4215 133.954 83.2249 134.37C84.1953 134.87 85.216 135.265 86.2698 135.55C88.0699 136.05 91.8099 136.95 93.3099 137.05C95.3018 137.044 97.2917 136.924 99.2699 136.69C101.084 136.341 102.846 135.758 104.51 134.955C106.113 134.161 107.6 133.152 108.93 131.955C109.26 131.615 110.08 130.615 110.08 130.615C112.73 128.19 115.055 121.505 115.35 120.655C115.529 120.137 116.184 117.278 116.727 114.906V114.905C117.075 113.382 117.378 112.058 117.48 111.685C117.74 110.73 118.495 108.475 119.15 107.685C119.526 107.231 119.534 106.985 119.542 106.771C119.547 106.612 119.552 106.471 119.705 106.275C120.119 105.824 120.569 105.408 121.05 105.03C124.702 102.084 126.784 101.845 129.033 101.586C129.284 101.557 129.537 101.528 129.795 101.495ZM128.975 113.419C129.483 112.566 130.129 111.482 131.68 111.591V133.605V133.608C131.684 133.675 131.754 134.934 129.951 137.247C128.701 138.083 127.493 138.98 126.33 139.935C126.202 140.052 125.958 140.266 125.653 140.532L125.652 140.533C124.764 141.31 123.362 142.535 122.83 143.145C122.402 143.606 121.947 144.041 121.468 144.447C119.378 145.821 116.835 147.335 113.743 148.975C112.252 149.448 110.724 149.8 109.175 150.025C107.877 150.153 106.587 150.349 105.31 150.61C105.11 150.71 101.445 150.97 99.8099 150.25C98.1749 149.53 94.9599 149.105 94.7299 149.105C94.6413 149.105 93.8201 149.237 92.7276 149.458C91.1604 148.643 89.7276 147.859 88.4176 147.105C90.5213 147.619 92.6911 147.815 94.8549 147.685C98.0649 147.39 102.585 146.635 103.6 146.44C104.036 146.356 104.707 146.181 105.389 146.004C106.295 145.768 107.219 145.527 107.63 145.49C107.993 145.457 108.214 145.341 108.429 145.228C108.64 145.117 108.845 145.01 109.17 144.99C109.504 144.969 109.758 144.79 110.084 144.559C110.398 144.337 110.78 144.068 111.365 143.845C112.56 143.39 113.295 143.055 113.295 143.055C113.624 142.715 113.986 142.409 114.375 142.14C115.173 141.601 115.91 140.976 116.57 140.275C117.523 139.189 118.54 138.16 119.615 137.195C120.163 136.718 120.656 135.963 121.114 135.261C121.534 134.619 121.924 134.021 122.3 133.725C122.782 133.344 123.34 132.206 123.942 130.979C124.32 130.208 124.715 129.402 125.12 128.725C125.975 127.296 126.651 124.782 126.908 123.828C126.966 123.611 127.003 123.474 127.015 123.45C127.149 122.82 127.346 122.205 127.605 121.615C127.935 121.115 128.295 117.49 128.295 117.195C128.295 117.157 128.292 117.087 128.287 116.993C128.257 116.361 128.176 114.629 128.685 113.885C128.78 113.746 128.875 113.587 128.975 113.419ZM85.2323 146.43C87.021 147.538 88.9906 148.663 91.1385 149.802C90.6493 149.916 90.1501 150.04 89.669 150.172C86.647 148.524 84.1567 147.003 82.1054 145.621C82.5746 145.804 83.0016 145.961 83.3649 146.08C83.9959 146.146 84.6205 146.263 85.2323 146.43ZM102.74 156.52C101.72 156.073 100.735 155.632 99.7832 155.197C101.277 155.464 102.78 155.676 104.289 155.833C103.782 156.061 103.265 156.289 102.74 156.52ZM71.9197 99.414V124.523C72.0665 124.736 72.2451 124.925 72.4499 125.085C72.5095 125.145 72.6546 125.313 72.855 125.549V98.0974C72.7206 98.2856 72.5877 98.4736 72.4559 98.6603L72.4552 98.6612C72.2753 98.9158 72.097 99.1682 71.9197 99.414ZM70.9097 100.731V122.449C70.403 121.363 69.8292 120.096 69.6999 119.615C69.6523 119.438 69.585 119.225 69.5096 118.987C69.2209 118.073 68.814 116.786 68.9449 115.72C69.0125 115.168 68.8488 114.413 68.6567 113.526C68.3805 112.252 68.0455 110.706 68.2549 109.105C68.601 106.458 69.6126 102.432 70.9097 100.731ZM75.4299 80.1099C74.9995 80.264 74.4782 80.4916 73.89 80.7874V72.4649H90.837C91.7559 73.5004 93.2842 74.9816 94.9549 75.6049C95.7875 75.9155 96.3102 76.1563 96.7146 76.3426C97.2475 76.5881 97.5748 76.7389 98.1349 76.8299C99.1199 76.9899 101.75 77.6649 102.135 77.7649C102.364 77.8244 103.304 78.0041 104.125 78.1611L104.128 78.1616L104.131 78.1622L104.133 78.1626L104.142 78.1643C104.694 78.2699 105.19 78.3648 105.375 78.4049C105.835 78.5049 111.14 78.6149 113.375 78.1899C115.61 77.7649 116.375 77.5049 117.045 76.9799C119.124 76.0425 121.379 75.5617 123.66 75.5699C126.84 75.696 129.749 76.559 131.68 78.9411V85.7224C131.334 86.0385 130.95 86.3151 130.535 86.5449C129.46 87.0454 128.309 87.3647 127.13 87.4899C125.132 87.6306 123.126 87.6206 121.13 87.4599C119.457 87.3096 117.815 86.9242 116.25 86.3149C114.364 85.4799 112.526 84.5401 110.745 83.4999C109.995 82.9749 104.95 80.5849 103.935 80.1899C103.443 79.9987 102.714 79.8391 101.992 79.6811C101.223 79.5127 100.461 79.3461 100.005 79.1449C99.5796 78.9575 99.033 78.8439 98.4202 78.7167C97.7578 78.5791 97.0179 78.4254 96.2699 78.1449C94.8299 77.6049 91.8799 77.4899 89.4599 77.8849C88.4326 78.0526 87.3099 78.0779 86.1567 78.1039C84.5931 78.1391 82.9734 78.1757 81.4599 78.5699C80.4682 78.8282 79.7304 78.9805 79.0589 79.1192C77.9495 79.3482 77.0215 79.5399 75.4299 80.1099ZM72.855 71.4299H90.0754C89.8905 71.0761 89.726 70.6613 89.5832 70.24H71.9197V81.8917C72.2412 81.6946 72.5538 81.5108 72.855 81.3408V71.4299ZM132.705 84.4973V80.1658C132.967 80.4709 133.447 82.62 133.25 83.3999C133.105 83.7858 132.922 84.1532 132.705 84.4973ZM103.815 70.4399C103.472 70.4639 102.929 70.4367 102.304 70.24H108.455C108.049 70.2963 107.645 70.3677 107.315 70.4699C107.315 70.4699 104.815 70.3699 103.815 70.4399ZM107.175 41.9249C107.277 41.3526 107.311 40.7701 107.275 40.1899L107.73 41.2349C107.596 41.4888 107.513 41.7668 107.487 42.0527C107.461 42.3386 107.491 42.6269 107.577 42.901C107.662 43.1752 107.801 43.4297 107.985 43.65C108.169 43.8703 108.395 44.0521 108.65 44.1849C108.676 44.4018 108.742 44.6121 108.845 44.8049C108.924 44.947 109.011 45.3164 109.097 45.6869C109.191 46.0856 109.284 46.4856 109.37 46.6049C109.547 47.0296 109.678 47.4722 109.76 47.9249C109.188 46.8976 108.533 45.9192 107.8 44.9999C107.27 44.0672 107.051 42.9902 107.175 41.9249ZM109.795 48.0799C109.795 48.0263 109.783 47.9733 109.76 47.9249C109.795 48.0199 109.795 48.0799 109.795 48.0799ZM99.0899 47.0999C98.9999 47.4999 98.4999 47.7549 98.4999 47.7549C98.7933 47.0451 99.0225 46.3105 99.1849 45.5599C99.2884 45.2747 99.419 45.0001 99.5749 44.7399C100.16 44.5453 100.651 44.1373 100.95 43.5971C101.248 43.0569 101.332 42.4242 101.185 41.8249L102.185 39.9249C102.185 39.9249 101.685 42.3799 101.365 44.0199C101.087 45.4426 100.776 45.7026 100.492 45.9391C100.449 45.9752 100.407 46.0108 100.365 46.0499C100.255 46.1525 100.075 46.2631 99.8835 46.3802C99.5252 46.5997 99.129 46.8423 99.0899 47.0999ZM82.8236 128.482C82.9906 128.604 83.1697 128.735 83.3648 128.87C83.8848 129.21 85.9098 130.365 86.5048 130.46C86.5048 130.46 84.7948 129.405 84.5498 129.195C84.4211 129.084 84.0852 128.817 83.7439 128.545C83.4358 128.299 83.1233 128.05 82.9548 127.91C82.7799 127.765 82.5456 127.658 82.3349 127.562C82.1179 127.464 81.9259 127.376 81.8498 127.27C81.6998 127.06 80.9298 126.235 80.9298 126.235L80.7698 125.965L81.3098 126.26C81.3098 126.26 80.7298 125.86 80.5448 125.76L79.5448 125.22C79.5448 125.22 80.6398 126.51 81.0198 126.925C81.3366 127.328 81.7047 127.687 82.1148 127.995C82.3313 128.123 82.5626 128.292 82.8236 128.482ZM82.5348 127.16L81.6348 126.46L82.2348 127.075L82.5348 127.16ZM86.7448 130.305V130.11C86.7448 130.11 86.1748 129.725 85.9248 129.54C85.7797 129.432 85.4373 129.153 85.1278 128.901C84.9041 128.718 84.6976 128.55 84.5948 128.47C84.3498 128.28 83.0498 127.47 83.0498 127.47L84.3648 128.525C84.4274 128.574 84.5109 128.64 84.6064 128.714C84.9538 128.986 85.4606 129.381 85.6998 129.605C86.0298 129.864 86.3792 130.098 86.7448 130.305ZM98.7398 115.4H103.9L98.7398 107.74H103.905L98.3148 99.4348H93.1598L98.3148 107.095H93.1598L98.3148 114.755H93.1498H87.9998L93.1498 107.095H87.9998L93.1498 99.4348H87.9998L82.4048 107.74H87.5598L82.4048 115.4H87.5598L82.4048 123.06H87.5648L93.1498 114.755L98.7398 123.06H103.9L98.7398 115.4ZM106.54 126.255C106.835 126.025 107.345 125.63 107.5 125.5C107.87 125.063 108.217 124.608 108.54 124.135C108.54 124.135 107.145 125.715 106.54 126.255ZM106.325 126.42L106.54 126.255C106.475 126.318 106.403 126.374 106.325 126.42ZM107.72 126.175C107.72 126.175 108.46 125.4 108.545 125.29L108.555 125.305C108.64 125.195 109.17 124.075 109.17 124.075L108.975 124.26L107.72 126.175ZM109.355 123.725C109.355 123.725 109.835 122.985 109.945 122.79L109.955 122.825C110.065 122.63 110.705 120.85 110.705 120.85C110.705 120.85 109.86 122.58 109.75 122.765C109.64 122.95 109.285 123.625 109.285 123.625L109.355 123.725ZM111.53 118.75L110.915 120.48L111.32 119.46L111.53 118.75Z" fill="#5A86A3"/>
</svg>